<?xml version="1.0" encoding="UTF-8"?>
<svg xmlns="http://www.w3.org/2000/svg" xmlns:xlink="http://www.w3.org/1999/xlink" width="274px" height="232px" viewBox="0 0 273 232" version="1.1">
<g id="surface1">
<path style=" stroke:none;fill-rule:nonzero;fill:rgb(81.568629%,40.392157%,1.960784%);fill-opacity:1;" d="M 116.609375 87.246094 C 117.878906 87.90625 117.878906 87.90625 118.949219 88.808594 C 119.359375 89.109375 119.769531 89.40625 120.191406 89.714844 C 121.980469 91.425781 122.515625 93.0625 122.601562 95.480469 C 122.605469 96.253906 122.601562 97.027344 122.59375 97.800781 C 122.59375 98.4375 122.59375 98.4375 122.59375 99.085938 C 122.59375 100.480469 122.582031 101.875 122.574219 103.269531 C 122.570312 104.242188 122.570312 105.210938 122.570312 106.179688 C 122.566406 108.726562 122.554688 111.277344 122.539062 113.824219 C 122.527344 116.425781 122.523438 119.027344 122.515625 121.628906 C 122.503906 126.730469 122.484375 131.828125 122.460938 136.929688 C 122.695312 136.929688 122.933594 136.925781 123.175781 136.925781 C 128.925781 136.871094 134.679688 136.832031 140.429688 136.808594 C 143.214844 136.796875 145.996094 136.78125 148.777344 136.753906 C 151.203125 136.730469 153.628906 136.714844 156.054688 136.710938 C 157.335938 136.707031 158.621094 136.699219 159.902344 136.683594 C 161.339844 136.664062 162.773438 136.664062 164.210938 136.664062 C 164.84375 136.652344 164.84375 136.652344 165.488281 136.640625 C 168.386719 136.664062 170.1875 137.367188 172.378906 139.277344 C 173.902344 140.957031 174.472656 141.996094 174.441406 144.300781 C 174.246094 145.796875 173.652344 146.664062 172.769531 147.886719 C 171.308594 148.96875 170.273438 149.207031 168.46875 149.210938 C 167.996094 149.214844 167.527344 149.21875 167.039062 149.222656 C 166.523438 149.21875 166.011719 149.21875 165.480469 149.21875 C 164.929688 149.21875 164.382812 149.222656 163.832031 149.226562 C 162.339844 149.230469 160.851562 149.230469 159.359375 149.230469 C 158.113281 149.226562 156.867188 149.230469 155.621094 149.234375 C 152.683594 149.238281 149.746094 149.238281 146.808594 149.234375 C 143.777344 149.230469 140.75 149.234375 137.71875 149.246094 C 135.117188 149.253906 132.511719 149.257812 129.910156 149.253906 C 128.355469 149.253906 126.800781 149.253906 125.25 149.261719 C 123.785156 149.265625 122.324219 149.265625 120.863281 149.257812 C 120.074219 149.253906 119.285156 149.261719 118.492188 149.265625 C 114.214844 149.230469 114.214844 149.230469 112.320312 147.492188 C 112.050781 147.285156 111.785156 147.074219 111.507812 146.855469 C 111.285156 146.664062 111.0625 146.46875 110.832031 146.273438 C 110.605469 146.078125 110.378906 145.882812 110.144531 145.679688 C 109.375 144.941406 109.207031 144.507812 109.148438 143.4375 C 109.144531 143.046875 109.144531 142.65625 109.144531 142.25 C 109.140625 141.800781 109.136719 141.355469 109.132812 140.890625 C 109.132812 140.398438 109.132812 139.902344 109.132812 139.390625 C 109.128906 138.867188 109.125 138.34375 109.125 137.820312 C 109.117188 136.394531 109.113281 134.964844 109.109375 133.539062 C 109.105469 132.648438 109.105469 131.757812 109.101562 130.863281 C 109.09375 128.074219 109.089844 125.285156 109.085938 122.496094 C 109.082031 119.277344 109.070312 116.058594 109.054688 112.839844 C 109.042969 110.351562 109.039062 107.863281 109.039062 105.375 C 109.035156 103.886719 109.03125 102.402344 109.023438 100.917969 C 109.015625 99.515625 109.011719 98.117188 109.015625 96.71875 C 109.015625 95.964844 109.007812 95.207031 109 94.449219 C 109.015625 91.941406 109.03125 90.304688 110.761719 88.417969 C 112.460938 86.910156 114.449219 86.929688 116.609375 87.246094 Z M 116.609375 87.246094 "/>
<path style=" stroke:none;fill-rule:nonzero;fill:rgb(78.823531%,0%,87.450981%);fill-opacity:1;" d="M 55.523438 44.867188 C 59.699219 48.238281 60.636719 53.742188 62.011719 58.691406 C 62.300781 59.730469 62.601562 60.761719 62.902344 61.796875 C 65.519531 71.042969 65.519531 71.042969 63.742188 75.335938 C 60.734375 80.183594 54.597656 81.128906 49.5 82.550781 C 48.464844 82.839844 47.429688 83.140625 46.394531 83.445312 C 41.957031 84.703125 37.414062 85.996094 32.953125 84.113281 C 27.894531 81.136719 26.957031 74.566406 25.515625 69.300781 C 25.339844 68.664062 25.164062 68.027344 24.980469 67.394531 C 22.074219 57.242188 22.074219 57.242188 24.445312 52.773438 C 27.472656 48.40625 33.421875 47.507812 38.226562 46.164062 C 39.261719 45.875 40.289062 45.574219 41.320312 45.269531 C 51.519531 42.367188 51.519531 42.367188 55.523438 44.867188 Z M 47.191406 50.078125 C 46.933594 50.335938 46.675781 50.59375 46.410156 50.859375 C 46.535156 52.242188 46.753906 53.457031 47.191406 54.773438 C 46.941406 54.816406 46.691406 54.859375 46.4375 54.902344 C 46.113281 54.964844 45.792969 55.027344 45.460938 55.089844 C 45.136719 55.148438 44.816406 55.207031 44.484375 55.269531 C 44.085938 55.410156 44.085938 55.410156 43.679688 55.554688 C 43.550781 55.941406 43.421875 56.328125 43.289062 56.726562 C 43.753906 57.375 43.753906 57.375 44.460938 57.902344 C 45.363281 57.875 45.363281 57.875 46.289062 57.585938 C 46.761719 57.460938 46.761719 57.460938 47.242188 57.332031 C 47.484375 57.261719 47.722656 57.191406 47.96875 57.121094 C 48.226562 58.152344 48.484375 59.183594 48.75 60.25 C 49.265625 60.378906 49.78125 60.507812 50.308594 60.640625 C 51.082031 59.5 51.085938 59.027344 50.945312 57.609375 C 50.824219 56.980469 50.824219 56.980469 50.699219 56.335938 C 51.730469 55.949219 52.757812 55.5625 53.820312 55.164062 C 53.691406 54.519531 53.5625 53.871094 53.429688 53.207031 C 51.414062 53.367188 51.414062 53.367188 49.53125 53.988281 C 49.460938 53.742188 49.386719 53.492188 49.316406 53.234375 C 49.21875 52.910156 49.117188 52.585938 49.019531 52.253906 C 48.875 51.769531 48.875 51.769531 48.730469 51.277344 C 48.546875 50.878906 48.546875 50.878906 48.359375 50.46875 C 47.972656 50.339844 47.585938 50.210938 47.191406 50.078125 Z M 36.703125 57.242188 C 36.339844 57.347656 35.972656 57.453125 35.597656 57.5625 C 35.214844 57.675781 34.835938 57.785156 34.441406 57.902344 C 34.054688 58.015625 33.671875 58.125 33.273438 58.242188 C 32.324219 58.519531 31.371094 58.796875 30.421875 59.074219 C 30.269531 59.722656 30.140625 60.375 30.03125 61.03125 C 30.160156 61.160156 30.289062 61.289062 30.421875 61.421875 C 32.699219 61.230469 34.832031 60.757812 37.027344 60.128906 C 37.324219 60.050781 37.625 59.96875 37.929688 59.890625 C 38.890625 59.632812 38.890625 59.632812 40.171875 59.074219 C 40.542969 58.324219 40.542969 58.324219 40.558594 57.511719 C 40.300781 57.253906 40.046875 56.996094 39.78125 56.726562 C 38.617188 56.726562 37.816406 56.917969 36.703125 57.242188 Z M 53.351562 64.207031 C 52.777344 64.371094 52.777344 64.371094 52.191406 64.535156 C 51.597656 64.714844 51.597656 64.714844 50.992188 64.894531 C 50.589844 65.011719 50.1875 65.125 49.773438 65.246094 C 48.78125 65.53125 47.789062 65.824219 46.800781 66.117188 C 46.652344 66.765625 46.523438 67.417969 46.410156 68.074219 C 46.539062 68.203125 46.667969 68.332031 46.800781 68.464844 C 49.078125 68.273438 51.210938 67.800781 53.40625 67.167969 C 53.703125 67.089844 54.003906 67.011719 54.3125 66.933594 C 55.273438 66.671875 55.273438 66.671875 56.550781 66.117188 C 56.851562 65.324219 56.851562 65.324219 56.941406 64.554688 C 55.585938 63.683594 54.871094 63.765625 53.351562 64.207031 Z M 41.339844 66.902344 C 40.4375 68.320312 39.539062 69.742188 38.609375 71.203125 C 37.65625 70.683594 36.707031 70.160156 35.753906 69.636719 C 34.558594 69.191406 33.960938 69.277344 32.761719 69.640625 C 32.902344 70.671875 33.011719 71.09375 33.84375 71.757812 C 34.121094 71.914062 34.398438 72.070312 34.6875 72.230469 C 35.617188 72.761719 36.285156 73.175781 37.050781 73.941406 C 36.90625 74.175781 36.757812 74.40625 36.609375 74.644531 C 36.425781 74.953125 36.242188 75.261719 36.050781 75.582031 C 35.773438 76.035156 35.773438 76.035156 35.488281 76.503906 C 35.023438 77.652344 35.144531 78.246094 35.488281 79.417969 C 36.429688 79.363281 36.429688 79.363281 37.441406 79.027344 C 38.09375 78.226562 38.09375 78.226562 38.535156 77.242188 C 38.78125 76.757812 38.78125 76.757812 39.03125 76.265625 C 39.148438 76.015625 39.269531 75.765625 39.390625 75.507812 C 40.628906 75.882812 41.660156 76.246094 42.753906 76.949219 C 43.632812 77.542969 43.632812 77.542969 44.558594 77.414062 C 44.78125 77.300781 45.007812 77.1875 45.238281 77.074219 C 45.433594 76.492188 45.433594 76.492188 45.628906 75.898438 C 43.53125 73.976562 43.53125 73.976562 40.949219 73.160156 C 41.125 72.867188 41.296875 72.574219 41.476562 72.273438 C 41.695312 71.886719 41.917969 71.503906 42.144531 71.105469 C 42.367188 70.726562 42.585938 70.34375 42.816406 69.949219 C 43.378906 68.910156 43.378906 68.910156 43.167969 67.933594 C 43.078125 67.722656 42.992188 67.511719 42.898438 67.292969 C 42.386719 67.164062 41.871094 67.035156 41.339844 66.902344 Z M 55.339844 70.898438 C 54.957031 71.003906 54.570312 71.109375 54.175781 71.222656 C 53.578125 71.394531 53.578125 71.394531 52.96875 71.570312 C 52.359375 71.742188 52.359375 71.742188 51.742188 71.914062 C 50.746094 72.195312 49.746094 72.480469 48.75 72.769531 C 48.601562 73.417969 48.472656 74.070312 48.359375 74.726562 C 48.488281 74.855469 48.617188 74.984375 48.75 75.117188 C 52.164062 74.996094 55.285156 73.839844 58.5 72.769531 C 58.5 72.125 58.5 71.476562 58.5 70.8125 C 57.136719 70.355469 56.695312 70.511719 55.339844 70.898438 Z M 55.339844 70.898438 "/>
<path style=" stroke:none;fill-rule:nonzero;fill:rgb(95.294118%,50.196081%,8.627451%);fill-opacity:1;" d="M 81.511719 134.976562 C 83.703125 136.09375 83.703125 136.09375 84.238281 137.714844 C 84.714844 137.746094 85.1875 137.777344 85.679688 137.8125 C 87.324219 137.921875 88.148438 138.496094 89.308594 139.667969 C 90.058594 140.914062 90.671875 142.214844 91.285156 143.53125 C 91.613281 144.226562 91.941406 144.917969 92.273438 145.609375 C 92.429688 145.9375 92.585938 146.265625 92.75 146.605469 C 93.230469 147.582031 93.230469 147.582031 94.085938 148.71875 C 96.0625 151.957031 94.761719 155.566406 94.015625 159.035156 C 93.898438 159.585938 93.785156 160.136719 93.671875 160.6875 C 93.390625 162.03125 93.109375 163.371094 92.820312 164.707031 C 93.085938 164.648438 93.351562 164.585938 93.625 164.523438 C 94.839844 164.246094 96.0625 163.976562 97.28125 163.707031 C 97.699219 163.609375 98.113281 163.511719 98.542969 163.414062 C 102.582031 162.535156 105.253906 162.613281 108.785156 164.804688 C 109.328125 165.128906 109.871094 165.449219 110.414062 165.769531 C 110.671875 165.925781 110.933594 166.078125 111.199219 166.238281 C 112.152344 166.792969 113.132812 167.285156 114.125 167.765625 C 115.558594 168.464844 116.84375 169.289062 118.171875 170.183594 C 118.703125 170.441406 119.242188 170.695312 119.777344 170.945312 C 121.191406 171.644531 122.039062 172.308594 122.851562 173.707031 C 123.304688 175.351562 123.300781 176.246094 122.800781 177.886719 C 121.71875 179.808594 120.839844 180.535156 118.730469 181.164062 C 115.625 181.410156 112.71875 179.4375 110.199219 177.839844 C 108.546875 176.921875 107.597656 176.742188 105.746094 177.089844 C 105.300781 177.167969 104.859375 177.25 104.402344 177.332031 C 103.925781 177.425781 103.449219 177.523438 102.960938 177.617188 C 102.21875 177.761719 102.21875 177.761719 101.460938 177.90625 C 99.625 178.261719 97.792969 178.632812 95.960938 179.007812 C 95.175781 179.167969 94.390625 179.324219 93.601562 179.480469 C 93.144531 179.574219 92.683594 179.667969 92.210938 179.761719 C 89.132812 180.230469 86.980469 179.777344 84.238281 178.402344 C 83.582031 177.886719 82.933594 177.367188 82.289062 176.835938 C 81.71875 176.589844 81.140625 176.355469 80.558594 176.128906 C 78.253906 175.144531 76.972656 173.652344 75.902344 171.40625 C 75.320312 168.480469 75.757812 165.8125 76.453125 162.945312 C 76.609375 162.238281 76.765625 161.527344 76.921875 160.820312 C 77.164062 159.722656 77.414062 158.625 77.683594 157.53125 C 78.742188 153.171875 79.300781 150 76.941406 146.011719 C 76.65625 145.554688 76.363281 145.097656 76.070312 144.644531 C 74.871094 142.679688 74.195312 140.828125 74.488281 138.496094 C 76.199219 135.316406 78.015625 134.46875 81.511719 134.976562 Z M 81.511719 134.976562 "/>
<path style=" stroke:none;fill-rule:nonzero;fill:rgb(27.843139%,75.294119%,11.764706%);fill-opacity:1;" d="M 138.941406 196.40625 C 139.339844 196.449219 139.742188 196.492188 140.15625 196.53125 C 140.996094 196.621094 141.839844 196.710938 142.679688 196.800781 C 143.957031 196.9375 145.238281 197.066406 146.515625 197.199219 C 147.339844 197.285156 148.160156 197.371094 148.984375 197.457031 C 149.359375 197.496094 149.738281 197.535156 150.128906 197.574219 C 156.160156 198.230469 156.160156 198.230469 157.925781 199.699219 C 161.183594 203.761719 159.246094 210.882812 158.742188 215.785156 C 158.609375 217.089844 158.480469 218.394531 158.355469 219.699219 C 158.269531 220.539062 158.1875 221.378906 158.101562 222.214844 C 158.0625 222.601562 158.027344 222.988281 157.988281 223.386719 C 157.707031 226.054688 157.410156 228.679688 155.390625 230.605469 C 151.394531 233.175781 144.277344 231.304688 139.773438 230.835938 C 138.46875 230.703125 137.164062 230.578125 135.855469 230.449219 C 135.019531 230.367188 134.183594 230.28125 133.34375 230.195312 C 132.957031 230.160156 132.570312 230.121094 132.171875 230.082031 C 128.941406 229.738281 126.601562 229.109375 124.410156 226.523438 C 123.421875 223.546875 124.101562 220.039062 124.417969 216.972656 C 124.460938 216.558594 124.503906 216.144531 124.542969 215.722656 C 124.632812 214.855469 124.722656 213.988281 124.808594 213.125 C 124.945312 211.804688 125.078125 210.484375 125.207031 209.164062 C 125.292969 208.320312 125.378906 207.472656 125.46875 206.628906 C 125.507812 206.238281 125.542969 205.847656 125.585938 205.445312 C 125.9375 202.066406 126.234375 199.261719 128.699219 196.789062 C 131.519531 195.027344 135.792969 196.070312 138.941406 196.40625 Z M 133.429688 209.945312 C 133.042969 210.28125 132.660156 210.617188 132.261719 210.960938 C 131.320312 211.972656 131.320312 211.972656 131.390625 213.207031 C 131.90625 214.636719 132.609375 215.546875 133.597656 216.691406 C 134.082031 217.261719 134.082031 217.261719 134.574219 217.839844 C 134.949219 218.265625 134.949219 218.265625 135.328125 218.699219 C 136.105469 218.59375 136.105469 218.59375 136.890625 218.308594 C 137.019531 217.917969 137.148438 217.53125 137.28125 217.132812 C 136.722656 216.210938 136.722656 216.210938 135.9375 215.300781 C 135.683594 214.984375 135.425781 214.667969 135.160156 214.339844 C 134.960938 214.101562 134.757812 213.859375 134.550781 213.613281 C 135.089844 212.355469 135.691406 211.636719 136.742188 210.777344 C 136.988281 210.570312 137.238281 210.367188 137.492188 210.160156 C 137.773438 209.929688 137.773438 209.929688 138.058594 209.699219 C 137.929688 209.183594 137.800781 208.667969 137.671875 208.136719 C 135.691406 207.867188 134.867188 208.648438 133.429688 209.945312 Z M 143.128906 208.527344 C 141.835938 210.039062 141.105469 211.808594 140.300781 213.613281 C 140.082031 214.085938 140.082031 214.085938 139.859375 214.570312 C 139.722656 214.875 139.585938 215.179688 139.441406 215.496094 C 139.316406 215.773438 139.191406 216.046875 139.0625 216.332031 C 138.796875 217.292969 138.835938 217.789062 139.230469 218.699219 C 139.617188 218.828125 140.003906 218.957031 140.398438 219.089844 C 141.839844 217.777344 142.429688 216.203125 143.203125 214.445312 C 143.347656 214.128906 143.488281 213.816406 143.636719 213.492188 C 144.617188 211.296875 144.617188 211.296875 144.691406 208.917969 C 144.175781 208.789062 143.660156 208.660156 143.128906 208.527344 Z M 147.421875 208.917969 C 147.164062 209.175781 146.90625 209.433594 146.640625 209.699219 C 146.640625 211.78125 148.128906 213.25 149.371094 214.785156 C 148.984375 215.089844 148.984375 215.089844 148.589844 215.402344 C 148.257812 215.675781 147.929688 215.949219 147.589844 216.226562 C 147.261719 216.496094 146.929688 216.765625 146.589844 217.039062 C 145.730469 217.863281 145.730469 217.863281 145.945312 219 C 146.046875 219.289062 146.148438 219.574219 146.25 219.871094 C 147.835938 219.644531 148.800781 218.8125 150.027344 217.816406 C 150.40625 217.515625 150.789062 217.214844 151.179688 216.90625 C 152.128906 216.035156 152.128906 216.035156 152.539062 215.019531 C 152.464844 213.496094 151.609375 212.644531 150.636719 211.558594 C 150.460938 211.347656 150.28125 211.132812 150.097656 210.917969 C 149.226562 209.90625 148.703125 209.347656 147.421875 208.917969 Z M 147.421875 208.917969 "/>
<path style=" stroke:none;fill-rule:nonzero;fill:rgb(94.901961%,50.196081%,8.627451%);fill-opacity:1;" d="M 149.320312 93.308594 C 152.023438 94.746094 152.914062 97.386719 154.066406 100.078125 C 154.554688 101.199219 155.074219 102.300781 155.597656 103.40625 C 156.128906 104.535156 156.648438 105.671875 157.171875 106.804688 C 157.171875 106.460938 157.175781 106.117188 157.179688 105.757812 C 157.199219 104.472656 157.222656 103.1875 157.25 101.898438 C 157.261719 101.34375 157.269531 100.789062 157.277344 100.230469 C 157.285156 99.429688 157.300781 98.628906 157.324219 97.828125 C 157.332031 97.347656 157.339844 96.863281 157.347656 96.367188 C 157.59375 94.851562 158.054688 94.199219 159.121094 93.113281 C 160.378906 92.480469 161.65625 92.542969 163.019531 92.722656 C 164.753906 93.335938 165.886719 93.90625 166.921875 95.460938 C 167 96.546875 167.035156 97.597656 167.035156 98.6875 C 167.035156 99.015625 167.039062 99.34375 167.042969 99.683594 C 167.046875 100.773438 167.050781 101.863281 167.050781 102.953125 C 167.054688 103.707031 167.054688 104.464844 167.058594 105.222656 C 167.0625 106.808594 167.066406 108.394531 167.066406 109.984375 C 167.066406 112.015625 167.074219 114.050781 167.089844 116.082031 C 167.097656 117.648438 167.097656 119.210938 167.097656 120.773438 C 167.097656 121.523438 167.101562 122.273438 167.109375 123.023438 C 167.117188 124.070312 167.113281 125.121094 167.109375 126.167969 C 167.113281 126.480469 167.117188 126.789062 167.121094 127.105469 C 167.105469 128.574219 166.972656 129.414062 166.175781 130.660156 C 165.160156 131.648438 164.804688 131.820312 163.386719 131.96875 C 161.492188 131.816406 159.875 131.433594 158.339844 130.28125 C 156.714844 128.148438 155.628906 125.660156 154.511719 123.238281 C 153.972656 122.074219 153.433594 120.914062 152.878906 119.714844 C 147.089844 119.523438 147.089844 119.523438 141.179688 119.324219 C 140.792969 120.488281 140.40625 121.648438 140.011719 122.847656 C 139.550781 124.007812 139.027344 125.136719 138.5 126.269531 C 138.371094 126.554688 138.246094 126.839844 138.113281 127.132812 C 137.199219 129.101562 136.171875 130.835938 134.160156 131.84375 C 131.972656 131.992188 130.585938 131.917969 128.699219 130.671875 C 127.75 129.789062 127.75 129.789062 127.140625 128.714844 C 127.265625 126.492188 127.964844 124.800781 128.925781 122.84375 C 129.066406 122.546875 129.207031 122.25 129.355469 121.941406 C 129.816406 120.980469 130.28125 120.019531 130.746094 119.054688 C 131.230469 118.050781 131.710938 117.042969 132.191406 116.039062 C 132.515625 115.363281 132.839844 114.6875 133.164062 114.015625 C 134.582031 111.054688 135.960938 108.078125 137.328125 105.09375 C 137.917969 103.824219 138.507812 102.550781 139.097656 101.28125 C 139.433594 100.558594 139.765625 99.832031 140.097656 99.105469 C 140.507812 98.207031 140.929688 97.308594 141.351562 96.414062 C 141.460938 96.167969 141.570312 95.917969 141.683594 95.664062 C 143.257812 92.398438 146.230469 92.171875 149.320312 93.308594 Z M 147.03125 107.199219 C 146.703125 107.832031 146.378906 108.46875 146.054688 109.105469 C 145.875 109.457031 145.691406 109.8125 145.507812 110.175781 C 145.027344 111.058594 145.027344 111.058594 145.078125 111.890625 C 146.496094 111.890625 147.910156 111.890625 149.371094 111.890625 C 148.726562 110.34375 148.082031 108.792969 147.421875 107.199219 C 147.292969 107.199219 147.164062 107.199219 147.03125 107.199219 Z M 147.03125 107.199219 "/>
<path style=" stroke:none;fill-rule:nonzero;fill:rgb(0%,80.784315%,55.29412%);fill-opacity:1;" d="M 140.03125 12.238281 C 142.90625 14.441406 145.292969 18.316406 145.859375 21.910156 C 146.296875 26.816406 145.988281 31.035156 143.03125 35.136719 C 140.835938 37.757812 138.34375 39.65625 134.941406 40.296875 C 132.691406 40.488281 130.625 40.449219 128.457031 39.808594 C 126.617188 39.316406 125.421875 39.90625 123.769531 40.746094 C 122.65625 41.148438 122.019531 41.007812 120.898438 40.6875 C 120.957031 40.289062 121.011719 39.894531 121.066406 39.484375 C 121.464844 36.03125 121.320312 33.890625 119.539062 30.796875 C 117.816406 27.679688 117.976562 24.167969 118.558594 20.734375 C 119.65625 16.941406 121.816406 13.351562 125.226562 11.230469 C 130.160156 8.683594 135.382812 9.332031 140.03125 12.238281 Z M 126.75 20.34375 C 126.621094 20.472656 126.492188 20.601562 126.359375 20.734375 C 126.433594 24.019531 126.996094 27.28125 127.53125 30.515625 C 128.171875 30.644531 128.816406 30.773438 129.480469 30.90625 C 129.265625 27.480469 128.878906 24.121094 128.308594 20.734375 C 127.550781 20.503906 127.550781 20.503906 126.75 20.34375 Z M 135.328125 20.34375 C 134.902344 21.960938 134.996094 23.246094 135.257812 24.890625 C 135.324219 25.332031 135.390625 25.773438 135.460938 26.226562 C 135.664062 27.449219 135.664062 27.449219 136.5 28.558594 C 136.886719 28.429688 137.273438 28.300781 137.671875 28.167969 C 137.625 27.304688 137.574219 26.441406 137.523438 25.578125 C 137.496094 25.09375 137.46875 24.613281 137.441406 24.117188 C 137.289062 22.753906 136.984375 21.625 136.5 20.34375 C 136.113281 20.34375 135.726562 20.34375 135.328125 20.34375 Z M 140.011719 21.910156 C 139.488281 22.34375 139.488281 22.34375 139.570312 23.449219 C 139.535156 24.613281 139.535156 24.613281 140.011719 25.429688 C 140.523438 25.429688 141.039062 25.429688 141.570312 25.429688 C 141.675781 23.609375 141.675781 23.609375 141.179688 21.910156 C 140.792969 21.910156 140.40625 21.910156 140.011719 21.910156 Z M 131.039062 22.300781 C 131.167969 23.980469 131.296875 25.65625 131.429688 27.386719 C 132.203125 27.578125 132.203125 27.578125 132.988281 27.777344 C 133.117188 27.648438 133.246094 27.519531 133.378906 27.386719 C 133.355469 26.675781 133.300781 25.964844 133.234375 25.257812 C 133.199219 24.871094 133.164062 24.484375 133.128906 24.085938 C 133.046875 23.089844 133.046875 23.089844 132.601562 22.300781 C 132.085938 22.300781 131.570312 22.300781 131.039062 22.300781 Z M 122.851562 23.472656 C 122.226562 25.410156 122.738281 27.046875 123.238281 28.949219 C 123.753906 28.949219 124.269531 28.949219 124.800781 28.949219 C 124.871094 26.910156 124.789062 25.402344 124.019531 23.472656 C 123.632812 23.472656 123.246094 23.472656 122.851562 23.472656 Z M 122.851562 23.472656 "/>
<path style=" stroke:none;fill-rule:nonzero;fill:rgb(95.294118%,50.196081%,8.235294%);fill-opacity:1;" d="M 116.609375 87.246094 C 118.582031 88.179688 119.351562 89.136719 120.121094 91.15625 C 120.285156 92.648438 120.269531 94.128906 120.253906 95.625 C 120.253906 96.296875 120.253906 96.296875 120.253906 96.980469 C 120.253906 98.453125 120.242188 99.925781 120.234375 101.398438 C 120.230469 102.421875 120.230469 103.445312 120.230469 104.46875 C 120.226562 106.882812 120.214844 109.296875 120.203125 111.710938 C 120.191406 114.464844 120.183594 117.214844 120.179688 119.964844 C 120.167969 125.621094 120.144531 131.273438 120.121094 136.929688 C 119.640625 136.941406 119.160156 136.949219 118.667969 136.960938 C 118.03125 136.984375 117.394531 137.007812 116.757812 137.027344 C 116.441406 137.035156 116.125 137.039062 115.800781 137.046875 C 113.6875 137.132812 112.421875 137.46875 110.761719 138.886719 C 109.855469 139.90625 109.855469 139.90625 109.199219 140.84375 C 109.164062 134.355469 109.136719 127.867188 109.121094 121.375 C 109.109375 118.363281 109.101562 115.351562 109.082031 112.339844 C 109.066406 109.710938 109.058594 107.085938 109.054688 104.457031 C 109.050781 103.070312 109.046875 101.679688 109.035156 100.289062 C 109.023438 98.734375 109.023438 97.183594 109.023438 95.628906 C 109.015625 95.167969 109.011719 94.710938 109.007812 94.234375 C 109.019531 91.785156 109.097656 90.273438 110.761719 88.417969 C 112.464844 86.910156 114.449219 86.933594 116.609375 87.246094 Z M 116.609375 87.246094 "/>
<path style=" stroke:none;fill-rule:nonzero;fill:rgb(81.960785%,40.392157%,1.960784%);fill-opacity:1;" d="M 198.898438 98.980469 C 201.089844 100.242188 201.089844 100.242188 201.628906 101.328125 C 202.472656 101.632812 203.328125 101.851562 204.195312 102.082031 C 205.496094 102.660156 206.191406 103.351562 207.089844 104.457031 C 207.523438 105.796875 207.523438 105.796875 207.773438 107.269531 C 207.859375 107.753906 207.945312 108.234375 208.035156 108.730469 C 209.011719 115.285156 209.054688 122.03125 208.136719 128.59375 C 208.09375 128.925781 208.046875 129.261719 208 129.605469 C 207.628906 131.960938 207.105469 133.859375 205.285156 135.511719 C 203.609375 136.324219 202.289062 136.484375 200.460938 136.148438 C 198.328125 135.003906 198.328125 135.003906 197.730469 133.800781 C 197.046875 133.550781 196.355469 133.328125 195.65625 133.117188 C 194.222656 132.601562 193.5 132.292969 192.390625 131.210938 C 191.320312 128.449219 191.90625 125.695312 192.269531 122.820312 C 192.886719 117.925781 192.785156 113.226562 192.164062 108.335938 C 191.484375 102.984375 191.484375 102.984375 192.488281 100.765625 C 194.390625 98.761719 196.253906 98.257812 198.898438 98.980469 Z M 198.898438 98.980469 "/>
<path style=" stroke:none;fill-rule:nonzero;fill:rgb(21.568628%,60.392159%,81.960785%);fill-opacity:1;" d="M 29.640625 165.882812 C 36.6875 167.265625 43.710938 168.761719 50.722656 170.308594 C 51.714844 170.523438 52.703125 170.742188 53.691406 170.960938 C 56.074219 171.484375 58.457031 172.007812 60.839844 172.53125 C 60.710938 173.566406 60.582031 174.597656 60.449219 175.664062 C 59.550781 175.535156 58.648438 175.40625 57.71875 175.273438 C 57.683594 175.527344 57.644531 175.785156 57.605469 176.050781 C 57.199219 178.632812 56.699219 181.183594 56.136719 183.730469 C 56.066406 184.042969 56 184.351562 55.929688 184.671875 C 55.429688 186.910156 55.429688 186.910156 54.988281 187.789062 C 55.890625 187.921875 56.792969 188.050781 57.71875 188.183594 C 57.917969 188.867188 58.113281 189.550781 58.304688 190.234375 C 58.414062 190.617188 58.523438 191 58.632812 191.390625 C 58.890625 192.484375 58.890625 192.484375 58.890625 194.050781 C 56.554688 193.820312 54.300781 193.476562 52.011719 192.96875 C 51.695312 192.898438 51.378906 192.832031 51.050781 192.761719 C 50.019531 192.535156 48.988281 192.308594 47.957031 192.082031 C 47.234375 191.921875 46.515625 191.765625 45.792969 191.609375 C 43.90625 191.195312 42.019531 190.78125 40.132812 190.367188 C 38.203125 189.945312 36.273438 189.523438 34.34375 189.101562 C 30.566406 188.273438 26.789062 187.445312 23.011719 186.617188 C 23.476562 184.542969 24.53125 182.933594 26.128906 181.53125 C 27.359375 181.332031 28.027344 181.554688 29.25 181.921875 C 29.292969 181.4375 29.335938 180.957031 29.382812 180.457031 C 29.636719 178.160156 30.132812 175.933594 30.640625 173.683594 C 30.730469 173.269531 30.820312 172.855469 30.914062 172.429688 C 31.140625 171.421875 31.363281 170.410156 31.589844 169.402344 C 30.433594 169.210938 30.433594 169.210938 29.25 169.011719 C 29.378906 167.980469 29.507812 166.945312 29.640625 165.882812 Z M 36.660156 172.53125 C 36.125 173.992188 35.832031 175.484375 35.539062 177.007812 C 35.453125 177.414062 35.363281 177.820312 35.273438 178.238281 C 34.863281 180.246094 34.6875 181.421875 35.101562 183.488281 C 36.515625 183.746094 37.929688 184.003906 39.390625 184.269531 C 39.816406 182.5625 40.226562 180.847656 40.632812 179.136719 C 40.816406 178.410156 40.816406 178.410156 41 177.667969 C 41.109375 177.199219 41.21875 176.730469 41.332031 176.246094 C 41.4375 175.816406 41.539062 175.386719 41.648438 174.941406 C 41.75 173.40625 41.382812 172.640625 40.558594 171.359375 C 38.773438 170.511719 37.929688 171.160156 36.660156 172.53125 Z M 47.746094 174.007812 C 46.285156 175.601562 46.089844 177.761719 45.703125 179.820312 C 45.617188 180.230469 45.535156 180.640625 45.449219 181.0625 C 45 183.238281 45 183.238281 44.851562 185.445312 C 46.457031 185.949219 47.839844 186.328125 49.53125 186.226562 C 50.210938 184.292969 50.707031 182.351562 51.164062 180.359375 C 51.238281 180.050781 51.3125 179.746094 51.386719 179.429688 C 51.789062 177.660156 51.964844 176.28125 51.480469 174.488281 C 51.015625 173.730469 51.015625 173.730469 50.308594 173.316406 C 48.761719 173.167969 48.761719 173.167969 47.746094 174.007812 Z M 47.746094 174.007812 "/>
<path style=" stroke:none;fill-rule:nonzero;fill:rgb(81.960785%,40.392157%,1.960784%);fill-opacity:1;" d="M 189.539062 145.148438 C 191.671875 146.292969 191.671875 146.292969 192.269531 147.492188 C 192.953125 147.742188 193.644531 147.96875 194.34375 148.179688 C 195.777344 148.691406 196.5 149 197.609375 150.085938 C 198.339844 151.976562 198.640625 153.328125 198.121094 155.320312 C 196.132812 158.902344 193.316406 161.980469 190.484375 164.914062 C 189.921875 165.5 189.367188 166.09375 188.808594 166.6875 C 181.613281 174.269531 181.613281 174.269531 177.546875 174.609375 C 175.832031 174.589844 174.863281 174.054688 173.550781 172.925781 C 173.015625 172.042969 173.015625 172.042969 172.769531 171.359375 C 172.367188 171.398438 171.964844 171.441406 171.550781 171.480469 C 169.554688 171.320312 169.082031 170.824219 167.699219 169.402344 C 166.707031 168.042969 166.777344 166.746094 166.921875 165.097656 C 167.757812 162.847656 169.097656 161.800781 170.941406 160.40625 C 175.460938 156.839844 179.4375 153.027344 182.660156 148.230469 C 184.507812 145.527344 186.335938 144.621094 189.539062 145.148438 Z M 189.539062 145.148438 "/>
<path style=" stroke:none;fill-rule:nonzero;fill:rgb(81.960785%,40.392157%,1.960784%);fill-opacity:1;" d="M 104.519531 59.859375 C 105.621094 60.570312 106.277344 61.035156 106.859375 62.207031 C 107.628906 62.386719 108.402344 62.566406 109.171875 62.742188 C 110.621094 63.183594 111.546875 64.042969 112.441406 65.238281 C 112.847656 66.574219 112.996094 67.882812 112.710938 69.246094 C 111.632812 71.210938 110.324219 72.371094 108.566406 73.671875 C 108.074219 74.050781 107.582031 74.429688 107.09375 74.808594 C 106.851562 74.992188 106.613281 75.175781 106.367188 75.367188 C 102.179688 78.652344 98.460938 82.625 95.367188 86.953125 C 94.488281 87.957031 93.679688 88.34375 92.371094 88.550781 C 90.242188 88.585938 89.042969 88.289062 87.359375 86.851562 C 87.230469 86.59375 87.101562 86.335938 86.96875 86.070312 C 86.285156 85.820312 85.59375 85.597656 84.898438 85.386719 C 83.441406 84.867188 82.742188 84.566406 81.632812 83.453125 C 80.957031 81.75 80.738281 80.441406 81.121094 78.636719 C 81.71875 77.3125 82.550781 76.246094 83.460938 75.117188 C 83.777344 74.71875 84.09375 74.324219 84.417969 73.914062 C 97.691406 57.628906 97.691406 57.628906 104.519531 59.859375 Z M 104.519531 59.859375 "/>
<path style=" stroke:none;fill-rule:nonzero;fill:rgb(81.960785%,40.392157%,1.960784%);fill-opacity:1;" d="M 78.78125 93.894531 C 80.933594 95.015625 80.933594 95.015625 81.46875 96.289062 C 81.609375 96.53125 81.753906 96.773438 81.898438 97.023438 C 82.691406 97.210938 82.691406 97.210938 83.582031 97.171875 C 85.234375 97.277344 85.234375 97.277344 86.058594 97.929688 C 87.589844 99.796875 87.859375 100.902344 87.75 103.285156 C 87.546875 104.527344 87.273438 105.75 86.996094 106.976562 C 85.960938 111.5625 85.703125 115.902344 85.667969 120.601562 C 85.5625 124.910156 85.5625 124.910156 83.851562 126.757812 C 82.15625 127.984375 80.824219 128.074219 78.828125 127.769531 C 77.636719 127.441406 76.902344 126.859375 76.050781 125.976562 C 75.921875 125.71875 75.792969 125.460938 75.660156 125.195312 C 74.890625 125.011719 74.117188 124.832031 73.347656 124.65625 C 71.921875 124.226562 70.949219 123.414062 70.15625 122.160156 C 69.390625 120.21875 69.660156 117.960938 69.664062 115.902344 C 69.664062 115.640625 69.664062 115.382812 69.664062 115.113281 C 69.671875 111.496094 69.894531 107.957031 70.492188 104.386719 C 70.554688 104.019531 70.613281 103.652344 70.679688 103.277344 C 71.871094 96.914062 71.871094 96.914062 73.953125 94.824219 C 75.582031 93.878906 76.90625 93.640625 78.78125 93.894531 Z M 78.78125 93.894531 "/>
<path style=" stroke:none;fill-rule:nonzero;fill:rgb(81.960785%,40.392157%,1.960784%);fill-opacity:1;" d="M 147.492188 49.734375 C 147.773438 49.769531 148.050781 49.808594 148.339844 49.84375 C 150.253906 50.183594 151.285156 50.996094 152.65625 52.28125 C 153.417969 52.945312 154.09375 53.1875 155.074219 53.402344 C 156.984375 53.96875 157.695312 54.617188 158.730469 56.335938 C 159.230469 57.910156 159.226562 59.160156 158.679688 60.738281 C 157.539062 62.421875 156.648438 63.214844 154.660156 63.722656 C 153.1875 63.847656 151.847656 63.628906 150.394531 63.386719 C 147.496094 62.957031 144.667969 62.871094 141.742188 62.890625 C 141.269531 62.886719 140.796875 62.882812 140.308594 62.882812 C 137.523438 62.886719 134.882812 63.109375 132.140625 63.609375 C 129.957031 63.929688 128.226562 63.832031 126.359375 62.621094 C 125.578125 61.816406 125.578125 61.816406 125.191406 61.03125 C 124.417969 60.851562 123.648438 60.671875 122.878906 60.492188 C 121.425781 60.054688 120.503906 59.195312 119.609375 58 C 118.996094 55.988281 119.0625 54.515625 120.023438 52.695312 C 122.316406 49.945312 125.1875 49.757812 128.574219 49.398438 C 134.78125 48.910156 141.324219 48.855469 147.492188 49.734375 Z M 147.492188 49.734375 "/>
<path style=" stroke:none;fill-rule:nonzero;fill:rgb(81.960785%,40.392157%,1.960784%);fill-opacity:1;" d="M 173.160156 59.859375 C 173.984375 60.378906 174.695312 60.9375 175.417969 61.589844 C 176.230469 62.171875 176.839844 62.425781 177.769531 62.746094 C 179.445312 63.34375 180.671875 64.210938 182.03125 65.335938 C 182.265625 65.523438 182.496094 65.710938 182.738281 65.90625 C 185.09375 67.832031 187.34375 69.875 189.539062 71.988281 C 189.753906 72.191406 189.96875 72.394531 190.1875 72.605469 C 191.949219 74.316406 193.453125 76.160156 194.925781 78.125 C 195.148438 78.414062 195.371094 78.707031 195.601562 79.007812 C 197.367188 81.339844 198.328125 82.894531 198.269531 85.882812 C 197.984375 87.730469 196.917969 88.652344 195.4375 89.738281 C 193.703125 90.25 192.292969 90.140625 190.613281 89.492188 C 189.539062 88.808594 189.539062 88.808594 189.003906 88.003906 C 188.148438 86.980469 187.363281 86.933594 186.082031 86.730469 C 184.105469 86.089844 182.96875 84.554688 181.835938 82.890625 C 180.261719 80.664062 178.539062 78.664062 176.671875 76.679688 C 176.410156 76.398438 176.152344 76.113281 175.886719 75.820312 C 173.816406 73.625 171.515625 71.863281 169.0625 70.128906 C 167.339844 68.882812 166.003906 67.828125 165.582031 65.628906 C 165.578125 63.523438 165.847656 62.265625 167.308594 60.640625 C 169.210938 59.265625 170.96875 59.171875 173.160156 59.859375 Z M 173.160156 59.859375 "/>
<path style=" stroke:none;fill-rule:nonzero;fill:rgb(81.960785%,40.392157%,1.960784%);fill-opacity:1;" d="M 156.367188 170.871094 C 157.558594 171.75 157.558594 171.75 157.925781 172.628906 C 157.933594 172.855469 157.941406 173.082031 157.949219 173.316406 C 158.554688 173.265625 158.554688 173.265625 159.167969 173.21875 C 160.941406 173.332031 161.671875 173.746094 163.019531 174.878906 C 164.03125 176.527344 164.011719 178.085938 163.800781 179.964844 C 163.074219 181.785156 161.949219 182.511719 160.289062 183.488281 C 159.21875 183.859375 158.136719 184.097656 157.023438 184.320312 C 156.714844 184.382812 156.402344 184.449219 156.082031 184.515625 C 151.289062 185.480469 146.625 185.914062 141.742188 185.980469 C 141.085938 185.996094 141.085938 185.996094 140.417969 186.011719 C 137.855469 186.019531 136.222656 185.84375 134.160156 184.269531 C 133.902344 183.882812 133.644531 183.496094 133.378906 183.097656 C 132.605469 182.90625 131.832031 182.714844 131.054688 182.542969 C 129.515625 182.097656 128.609375 181.226562 127.773438 179.894531 C 127.367188 178.054688 127.375 176.191406 128.355469 174.535156 C 129.039062 173.691406 129.671875 173.023438 130.648438 172.53125 C 131.324219 172.488281 131.996094 172.460938 132.671875 172.449219 C 133.292969 172.433594 133.292969 172.433594 133.929688 172.417969 C 134.375 172.410156 134.820312 172.398438 135.28125 172.386719 C 140.339844 172.230469 145.351562 171.816406 150.265625 170.546875 C 152.449219 170 154.300781 169.796875 156.367188 170.871094 Z M 156.367188 170.871094 "/>
<path style=" stroke:none;fill-rule:nonzero;fill:rgb(62.7451%,21.568628%,81.960785%);fill-opacity:1;" d="M 228.539062 159.621094 C 229.320312 160.40625 229.320312 160.40625 229.367188 161.433594 C 229.351562 161.738281 229.335938 162.046875 229.320312 162.359375 C 228.546875 162.75 228.546875 162.75 227.761719 163.144531 C 227.855469 163.363281 227.949219 163.582031 228.046875 163.808594 C 228.472656 164.800781 228.898438 165.792969 229.320312 166.785156 C 229.542969 167.304688 229.542969 167.304688 229.769531 167.832031 C 229.910156 168.164062 230.050781 168.496094 230.199219 168.835938 C 230.328125 169.140625 230.457031 169.445312 230.59375 169.761719 C 230.878906 170.578125 230.878906 170.578125 230.878906 171.75 C 231.105469 171.859375 231.332031 171.964844 231.566406 172.078125 C 232.417969 172.519531 233.167969 173.011719 233.945312 173.566406 C 234.226562 173.769531 234.511719 173.96875 234.800781 174.175781 C 235.089844 174.382812 235.382812 174.59375 235.683594 174.808594 C 235.96875 175.011719 236.253906 175.214844 236.550781 175.425781 C 237.117188 175.828125 237.683594 176.234375 238.25 176.644531 C 238.785156 177.023438 239.324219 177.402344 239.863281 177.777344 C 241.457031 178.882812 242.367188 179.640625 242.96875 181.53125 C 242.933594 183.640625 242.5 184.742188 241.019531 186.226562 C 239.765625 186.917969 238.457031 187.4375 237.125 187.957031 C 236.742188 188.109375 236.363281 188.265625 235.96875 188.421875 C 235.167969 188.746094 234.359375 189.066406 233.554688 189.382812 C 232.324219 189.867188 231.097656 190.363281 229.871094 190.859375 C 229.089844 191.171875 228.304688 191.484375 227.519531 191.796875 C 227.15625 191.945312 226.792969 192.09375 226.414062 192.246094 C 224.429688 193.015625 222.871094 193.484375 220.738281 193.269531 C 219.554688 192.648438 218.613281 191.742188 218.011719 190.53125 C 217.871094 188.40625 218.058594 186.613281 218.546875 184.542969 C 219.910156 178.75 220.523438 174.113281 217.355469 168.816406 C 216.824219 168.105469 216.824219 168.105469 215.605469 167.878906 C 215.238281 167.867188 214.875 167.851562 214.5 167.839844 C 213.71875 167.054688 213.71875 167.054688 213.699219 165.917969 C 214.109375 164.707031 214.109375 164.707031 215.269531 163.976562 C 215.777344 163.761719 216.292969 163.558594 216.808594 163.367188 C 217.082031 163.257812 217.351562 163.148438 217.632812 163.035156 C 218.207031 162.804688 218.785156 162.578125 219.363281 162.359375 C 220.246094 162.019531 221.125 161.667969 222 161.316406 C 222.5625 161.09375 223.121094 160.871094 223.683594 160.652344 C 224.074219 160.496094 224.074219 160.496094 224.476562 160.335938 C 225.867188 159.808594 227.050781 159.421875 228.539062 159.621094 Z M 223.859375 164.707031 C 222.984375 165.007812 222.984375 165.007812 222.054688 165.464844 C 221.738281 165.613281 221.417969 165.765625 221.089844 165.917969 C 220.722656 166.09375 220.722656 166.09375 220.351562 166.273438 C 220.566406 167.847656 221.113281 169.121094 221.765625 170.546875 C 223.160156 173.636719 223.78125 175.796875 223.078125 179.183594 C 223 179.988281 222.925781 180.796875 222.859375 181.605469 C 222.804688 182.230469 222.746094 182.859375 222.691406 183.488281 C 224.128906 182.964844 225.289062 182.316406 226.535156 181.429688 C 226.882812 181.1875 227.226562 180.941406 227.585938 180.6875 C 227.941406 180.433594 228.296875 180.179688 228.660156 179.917969 C 229.023438 179.660156 229.386719 179.402344 229.761719 179.136719 C 230.65625 178.5 231.546875 177.867188 232.441406 177.226562 C 232.167969 177.011719 231.894531 176.792969 231.609375 176.566406 C 231.242188 176.269531 230.871094 175.96875 230.488281 175.664062 C 230.101562 175.398438 229.714844 175.132812 229.3125 174.863281 C 227.613281 173.433594 227.042969 171.335938 226.296875 169.304688 C 226 168.519531 225.703125 167.734375 225.402344 166.953125 C 225.210938 166.433594 225.210938 166.433594 225.011719 165.902344 C 224.710938 165.035156 224.710938 165.035156 223.859375 164.707031 Z M 223.859375 164.707031 "/>
<path style=" stroke:none;fill-rule:nonzero;fill:rgb(81.960785%,40.392157%,1.960784%);fill-opacity:1;" d="M 142.738281 93.894531 C 142.996094 94.023438 143.253906 94.152344 143.519531 94.285156 C 143.390625 94.542969 143.261719 94.804688 143.128906 95.070312 C 143.078125 97.984375 144.144531 100.0625 145.515625 102.5625 C 146.417969 104.238281 146.972656 105.640625 147.03125 107.589844 C 146.535156 109.128906 145.8125 110.441406 145.078125 111.890625 C 146.625 111.890625 148.167969 111.890625 149.761719 111.890625 C 150.28125 112.910156 150.800781 113.929688 151.320312 114.949219 C 151.46875 115.238281 151.617188 115.527344 151.769531 115.824219 C 151.910156 116.101562 152.050781 116.378906 152.199219 116.667969 C 152.394531 117.050781 152.394531 117.050781 152.59375 117.445312 C 152.878906 118.152344 152.878906 118.152344 152.878906 119.324219 C 149.019531 119.324219 145.15625 119.324219 141.179688 119.324219 C 140.792969 120.488281 140.40625 121.648438 140.011719 122.847656 C 139.550781 124.007812 139.027344 125.136719 138.5 126.269531 C 138.371094 126.554688 138.246094 126.839844 138.113281 127.132812 C 137.199219 129.101562 136.171875 130.835938 134.160156 131.84375 C 131.972656 131.992188 130.585938 131.917969 128.699219 130.671875 C 127.75 129.789062 127.75 129.789062 127.140625 128.714844 C 127.265625 126.492188 127.964844 124.800781 128.925781 122.84375 C 129.066406 122.546875 129.207031 122.25 129.355469 121.941406 C 129.816406 120.980469 130.28125 120.019531 130.746094 119.054688 C 131.230469 118.050781 131.710938 117.042969 132.191406 116.039062 C 132.515625 115.363281 132.839844 114.6875 133.164062 114.015625 C 134.582031 111.054688 135.960938 108.078125 137.328125 105.09375 C 139.0625 101.324219 140.847656 97.589844 142.738281 93.894531 Z M 142.738281 93.894531 "/>
<path style=" stroke:none;fill-rule:nonzero;fill:rgb(80.784315%,40.392157%,2.352941%);fill-opacity:1;" d="M 163.019531 92.722656 C 164.753906 93.335938 165.886719 93.90625 166.921875 95.460938 C 167 96.546875 167.035156 97.597656 167.035156 98.6875 C 167.035156 99.015625 167.039062 99.34375 167.042969 99.683594 C 167.046875 100.773438 167.050781 101.863281 167.050781 102.953125 C 167.054688 103.707031 167.054688 104.464844 167.058594 105.222656 C 167.0625 106.808594 167.066406 108.394531 167.066406 109.984375 C 167.066406 112.015625 167.074219 114.050781 167.089844 116.082031 C 167.097656 117.648438 167.097656 119.210938 167.097656 120.773438 C 167.097656 121.523438 167.101562 122.273438 167.109375 123.023438 C 167.117188 124.070312 167.113281 125.121094 167.109375 126.167969 C 167.113281 126.480469 167.117188 126.789062 167.121094 127.105469 C 167.105469 128.574219 166.972656 129.414062 166.175781 130.660156 C 165.085938 131.71875 164.78125 131.832031 163.238281 131.917969 C 161.851562 131.84375 161.851562 131.84375 160.679688 131.0625 C 160.894531 130.992188 161.113281 130.921875 161.335938 130.847656 C 161.617188 130.75 161.898438 130.648438 162.191406 130.550781 C 162.472656 130.453125 162.753906 130.359375 163.042969 130.261719 C 163.933594 129.902344 163.933594 129.902344 164.578125 128.714844 C 164.457031 126.824219 164 125.335938 163.191406 123.636719 C 162.980469 123.1875 162.769531 122.738281 162.550781 122.277344 C 162.316406 121.789062 162.082031 121.304688 161.851562 120.816406 C 161.609375 120.304688 161.367188 119.792969 161.125 119.28125 C 160.605469 118.183594 160.082031 117.085938 159.5625 115.992188 C 158.695312 114.171875 157.84375 112.351562 156.988281 110.527344 C 156.40625 109.285156 155.824219 108.046875 155.246094 106.804688 C 155.105469 106.511719 154.96875 106.21875 154.828125 105.917969 C 152.003906 99.546875 152.003906 99.546875 148.589844 93.503906 C 149.734375 93.71875 150.636719 93.929688 151.402344 94.855469 C 152.855469 97.246094 154.007812 99.753906 155.148438 102.308594 C 155.441406 102.957031 155.441406 102.957031 155.742188 103.621094 C 156.21875 104.683594 156.695312 105.742188 157.171875 106.804688 C 157.171875 106.460938 157.175781 106.117188 157.179688 105.757812 C 157.199219 104.472656 157.222656 103.1875 157.25 101.898438 C 157.261719 101.34375 157.269531 100.789062 157.277344 100.230469 C 157.285156 99.429688 157.300781 98.628906 157.324219 97.828125 C 157.332031 97.347656 157.339844 96.863281 157.347656 96.367188 C 157.59375 94.851562 158.054688 94.199219 159.121094 93.113281 C 160.378906 92.480469 161.65625 92.542969 163.019531 92.722656 Z M 163.019531 92.722656 "/>
<path style=" stroke:none;fill-rule:nonzero;fill:rgb(0%,80.784315%,55.29412%);fill-opacity:1;" d="M 147.984375 4.097656 C 151.324219 6.5 153.445312 9.710938 154.441406 13.691406 C 154.574219 14.164062 154.574219 14.164062 154.707031 14.648438 C 154.996094 17.019531 154.960938 19.1875 154.316406 21.492188 C 153.824219 23.617188 154.542969 24.933594 155.585938 26.78125 C 156.074219 27.957031 155.972656 28.535156 155.609375 29.734375 C 155.207031 29.71875 154.800781 29.707031 154.386719 29.691406 C 153.851562 29.679688 153.316406 29.671875 152.78125 29.660156 C 152.515625 29.648438 152.25 29.640625 151.976562 29.628906 C 150.277344 29.605469 149.488281 29.828125 148.199219 30.90625 C 147.8125 30.777344 147.429688 30.648438 147.03125 30.515625 C 147.09375 30.253906 147.152344 29.992188 147.21875 29.722656 C 148.027344 25.078125 147.648438 20.144531 145.164062 16.070312 C 144.691406 15.402344 144.210938 14.742188 143.710938 14.09375 C 143.128906 13.300781 143.128906 13.300781 142.738281 12.128906 C 142.019531 11.714844 142.019531 11.714844 141.179688 11.34375 C 140.648438 10.96875 140.121094 10.582031 139.59375 10.195312 C 136.773438 8.289062 133.597656 7.75 130.261719 7.433594 C 131.324219 5.015625 133.503906 3.816406 135.800781 2.71875 C 140.015625 1.105469 144.167969 1.792969 147.984375 4.097656 Z M 147.984375 4.097656 "/>
<path style=" stroke:none;fill-rule:nonzero;fill:rgb(81.960785%,40.784314%,1.960784%);fill-opacity:1;" d="M 106.46875 163.925781 C 111.039062 166.21875 111.039062 166.21875 111.871094 166.636719 C 112.4375 166.917969 113.003906 167.199219 113.570312 167.480469 C 113.847656 167.617188 114.121094 167.753906 114.402344 167.894531 C 114.648438 168.015625 114.894531 168.136719 115.148438 168.261719 C 116.207031 168.820312 117.175781 169.519531 118.171875 170.183594 C 118.703125 170.441406 119.242188 170.695312 119.777344 170.945312 C 121.191406 171.644531 122.039062 172.308594 122.851562 173.707031 C 123.304688 175.351562 123.300781 176.246094 122.800781 177.886719 C 121.71875 179.808594 120.839844 180.535156 118.730469 181.164062 C 115.625 181.410156 112.71875 179.4375 110.199219 177.839844 C 108.546875 176.921875 107.597656 176.742188 105.746094 177.089844 C 105.082031 177.210938 105.082031 177.210938 104.402344 177.332031 C 103.925781 177.425781 103.449219 177.523438 102.960938 177.617188 C 102.464844 177.714844 101.96875 177.808594 101.460938 177.90625 C 99.625 178.261719 97.792969 178.632812 95.960938 179.007812 C 95.175781 179.167969 94.390625 179.324219 93.601562 179.480469 C 93.144531 179.574219 92.683594 179.667969 92.210938 179.761719 C 90.015625 180.097656 88.160156 180.128906 86.09375 179.28125 C 85.769531 179.15625 85.445312 179.027344 85.113281 178.898438 C 84.128906 178.339844 83.714844 177.75 83.070312 176.835938 C 86.316406 176.175781 89.566406 175.523438 92.820312 174.878906 C 93.238281 174.796875 93.660156 174.714844 94.09375 174.628906 C 95.261719 174.398438 96.429688 174.171875 97.597656 173.949219 C 97.953125 173.882812 98.304688 173.8125 98.671875 173.738281 C 102.0625 173.105469 103.1875 173.625 106.46875 175.273438 C 106.46875 171.527344 106.46875 167.785156 106.46875 163.925781 Z M 106.46875 163.925781 "/>
<path style=" stroke:none;fill-rule:nonzero;fill:rgb(80.784315%,8.627451%,0.392157%);fill-opacity:1;" d="M 241.019531 44.992188 C 243.382812 46.636719 244.613281 48.875 245.308594 51.640625 C 245.816406 55.0625 244.761719 57.523438 242.921875 60.347656 C 240.746094 62.433594 238.539062 63.492188 235.511719 63.574219 C 232.457031 63.425781 230.234375 62.621094 227.96875 60.542969 C 225.996094 58.296875 225.265625 55.558594 225.3125 52.621094 C 225.617188 49.84375 226.828125 47.445312 228.882812 45.566406 C 232.816406 42.828125 236.84375 42.910156 241.019531 44.992188 Z M 237.121094 46.554688 C 237.121094 46.945312 237.121094 47.332031 237.121094 47.730469 C 236.644531 47.691406 236.171875 47.648438 235.683594 47.609375 C 234.296875 47.609375 234.011719 47.722656 232.804688 48.5625 C 231.941406 49.625 231.941406 49.625 232.027344 50.882812 C 232.484375 52.160156 232.945312 52.765625 234 53.597656 C 234.257812 53.597656 234.515625 53.597656 234.78125 53.597656 C 234.523438 54.890625 234.265625 56.179688 234 57.511719 C 232.441406 56.335938 232.441406 56.335938 232.148438 55.285156 C 232.097656 54.839844 232.097656 54.839844 232.050781 54.382812 C 231.535156 54.382812 231.019531 54.382812 230.488281 54.382812 C 230.292969 55.472656 230.292969 55.472656 230.488281 56.726562 C 231.597656 57.773438 231.597656 57.773438 232.828125 58.683594 C 233.367188 59.589844 233.367188 59.589844 233.609375 60.25 C 233.738281 59.863281 233.867188 59.476562 234 59.074219 C 234.484375 59.101562 234.964844 59.125 235.460938 59.148438 C 236.515625 59.140625 237.089844 59.089844 238.070312 58.660156 C 238.996094 57.507812 239.070312 56.628906 239.070312 55.164062 C 238.46875 54.007812 238.46875 54.007812 237.511719 53.207031 C 236.996094 53.078125 236.480469 52.949219 235.949219 52.816406 C 236.335938 51.785156 236.722656 50.75 237.121094 49.6875 C 238.632812 51.152344 238.632812 51.152344 239.070312 52.035156 C 239.585938 51.777344 240.097656 51.515625 240.628906 51.25 C 240.054688 50.179688 239.617188 49.410156 238.632812 48.683594 C 237.765625 48.019531 237.65625 47.617188 237.511719 46.554688 C 237.382812 46.554688 237.253906 46.554688 237.121094 46.554688 Z M 237.121094 46.554688 "/>
<path style=" stroke:none;fill-rule:nonzero;fill:rgb(34.901962%,30.980393%,27.058825%);fill-opacity:1;" d="M 192.660156 147.886719 C 194.984375 148.320312 196.171875 148.730469 197.730469 150.625 C 198.507812 152.179688 198.484375 153.632812 198.121094 155.320312 C 196.152344 158.90625 193.3125 161.984375 190.484375 164.914062 C 189.921875 165.5 189.367188 166.09375 188.808594 166.6875 C 181.613281 174.269531 181.613281 174.269531 177.546875 174.609375 C 175.832031 174.589844 174.863281 174.054688 173.550781 172.925781 C 173.097656 172.085938 173.097656 172.085938 172.769531 171.359375 C 173.117188 171.167969 173.117188 171.167969 173.472656 170.96875 C 180.953125 166.664062 188.304688 159.550781 192.269531 151.796875 C 192.53125 150.703125 192.53125 150.703125 192.5625 149.671875 C 192.59375 149.164062 192.59375 149.164062 192.628906 148.644531 C 192.644531 148.269531 192.644531 148.269531 192.660156 147.886719 Z M 192.660156 147.886719 "/>
<path style=" stroke:none;fill-rule:nonzero;fill:rgb(34.901962%,30.980393%,27.058825%);fill-opacity:1;" d="M 106.859375 62.597656 C 108.925781 62.398438 109.945312 62.84375 111.539062 64.160156 C 112.664062 65.511719 112.851562 66.652344 112.902344 68.402344 C 112.34375 70.851562 110.472656 72.261719 108.566406 73.671875 C 108.074219 74.050781 107.582031 74.429688 107.09375 74.808594 C 106.851562 74.992188 106.613281 75.175781 106.367188 75.367188 C 102.179688 78.652344 98.460938 82.625 95.367188 86.953125 C 94.488281 87.957031 93.679688 88.34375 92.371094 88.550781 C 90.257812 88.585938 88.996094 88.332031 87.359375 86.851562 C 87.105469 86.015625 87.105469 86.015625 86.96875 85.289062 C 87.40625 85.070312 87.839844 84.851562 88.285156 84.628906 C 89.84375 83.65625 90.851562 82.453125 91.917969 80.984375 C 95.625 75.914062 100.1875 72.164062 105.203125 68.453125 C 106.355469 67.441406 106.808594 66.730469 106.9375 65.195312 C 106.925781 64.886719 106.917969 64.578125 106.910156 64.257812 C 106.902344 63.945312 106.894531 63.632812 106.886719 63.3125 C 106.878906 63.074219 106.871094 62.839844 106.859375 62.597656 Z M 106.859375 62.597656 "/>
<path style=" stroke:none;fill-rule:nonzero;fill:rgb(34.901962%,30.980393%,27.058825%);fill-opacity:1;" d="M 201.628906 101.71875 C 204.613281 102.011719 204.613281 102.011719 205.847656 102.894531 C 210.488281 109.28125 209.152344 121.269531 208.136719 128.59375 C 208.09375 128.925781 208.046875 129.261719 208 129.605469 C 207.628906 131.964844 207.105469 133.859375 205.285156 135.511719 C 203.605469 136.324219 202.292969 136.476562 200.460938 136.148438 C 198.832031 135.316406 198.078125 134.660156 197.339844 133.019531 C 197.65625 132.882812 197.65625 132.882812 197.980469 132.746094 C 198.261719 132.617188 198.539062 132.488281 198.828125 132.359375 C 199.101562 132.234375 199.378906 132.113281 199.664062 131.988281 C 200.992188 131.097656 201.503906 129.984375 201.902344 128.457031 C 203.253906 119.484375 203.128906 110.660156 201.628906 101.71875 Z M 201.628906 101.71875 "/>
<path style=" stroke:none;fill-rule:nonzero;fill:rgb(80.784315%,8.627451%,0.392157%);fill-opacity:1;" d="M 248.453125 63.671875 C 248.941406 63.808594 249.429688 63.941406 249.929688 64.082031 C 251.160156 64.554688 251.160156 64.554688 251.941406 65.726562 C 251.792969 68.082031 251.066406 70.292969 250.386719 72.542969 C 250.269531 72.925781 250.152344 73.3125 250.035156 73.707031 C 249.789062 74.515625 249.542969 75.320312 249.296875 76.128906 C 248.917969 77.367188 248.550781 78.605469 248.183594 79.84375 C 247.941406 80.628906 247.703125 81.414062 247.460938 82.203125 C 247.351562 82.570312 247.246094 82.941406 247.132812 83.324219 C 246.335938 85.859375 246.335938 85.859375 245.109375 86.910156 C 243.726562 87.386719 242.921875 87.074219 241.554688 86.609375 C 241.117188 86.464844 240.675781 86.324219 240.226562 86.179688 C 239.128906 85.703125 238.609375 85.441406 237.898438 84.507812 C 237.914062 83.757812 237.914062 83.757812 238.144531 82.914062 C 238.226562 82.601562 238.308594 82.289062 238.394531 81.96875 C 238.488281 81.644531 238.582031 81.320312 238.679688 80.984375 C 238.769531 80.675781 238.855469 80.363281 238.945312 80.042969 C 239.234375 79.054688 239.535156 78.070312 239.835938 77.085938 C 239.949219 76.730469 240.058594 76.375 240.167969 76.007812 C 240.398438 75.257812 240.628906 74.511719 240.863281 73.761719 C 241.214844 72.617188 241.566406 71.472656 241.917969 70.324219 C 242.140625 69.597656 242.367188 68.867188 242.59375 68.136719 C 242.695312 67.796875 242.800781 67.453125 242.910156 67.101562 C 243.007812 66.785156 243.105469 66.464844 243.207031 66.140625 C 243.292969 65.859375 243.378906 65.582031 243.46875 65.292969 C 243.75 64.554688 243.75 64.554688 244.53125 63.378906 C 246.078125 62.863281 246.894531 63.226562 248.453125 63.671875 Z M 248.453125 63.671875 "/>
<path style=" stroke:none;fill-rule:nonzero;fill:rgb(80.784315%,8.627451%,0.392157%);fill-opacity:1;" d="M 214.890625 53.988281 C 220.273438 54.304688 220.273438 54.304688 222.300781 56.335938 C 222.152344 58.699219 221.414062 60.902344 220.71875 63.152344 C 220.601562 63.539062 220.484375 63.921875 220.363281 64.316406 C 220.113281 65.125 219.863281 65.933594 219.613281 66.738281 C 219.230469 67.976562 218.851562 69.214844 218.476562 70.453125 C 218.230469 71.238281 217.988281 72.027344 217.746094 72.8125 C 217.632812 73.183594 217.519531 73.550781 217.40625 73.933594 C 217.296875 74.277344 217.1875 74.621094 217.078125 74.976562 C 216.984375 75.277344 216.890625 75.578125 216.796875 75.890625 C 216.40625 76.777344 216.046875 77.265625 215.28125 77.855469 C 213.175781 77.769531 210.949219 77.203125 209.039062 76.289062 C 208.261719 75.117188 208.261719 75.117188 208.3125 74.28125 C 208.84375 71.9375 209.464844 69.644531 210.199219 67.355469 C 210.363281 66.832031 210.363281 66.832031 210.53125 66.300781 C 210.757812 65.574219 210.992188 64.847656 211.222656 64.121094 C 211.578125 63.007812 211.925781 61.890625 212.277344 60.777344 C 212.503906 60.066406 212.726562 59.359375 212.953125 58.648438 C 213.054688 58.316406 213.160156 57.984375 213.269531 57.640625 C 213.367188 57.332031 213.464844 57.023438 213.570312 56.707031 C 213.65625 56.4375 213.742188 56.167969 213.828125 55.886719 C 214.109375 55.164062 214.109375 55.164062 214.890625 53.988281 Z M 214.890625 53.988281 "/>
<path style=" stroke:none;fill-rule:nonzero;fill:rgb(34.901962%,30.980393%,27.058825%);fill-opacity:1;" d="M 81.898438 97.023438 C 84.9375 97.039062 84.9375 97.039062 86.0625 97.9375 C 87.59375 99.796875 87.859375 100.90625 87.75 103.285156 C 87.546875 104.527344 87.273438 105.75 86.996094 106.976562 C 85.960938 111.5625 85.703125 115.902344 85.667969 120.601562 C 85.5625 124.910156 85.5625 124.910156 83.851562 126.757812 C 82.15625 127.984375 80.824219 128.078125 78.828125 127.765625 C 77.609375 127.433594 76.894531 126.90625 76.050781 125.976562 C 75.804688 125.140625 75.804688 125.140625 75.660156 124.410156 C 75.875 124.316406 76.09375 124.222656 76.316406 124.125 C 76.738281 123.925781 76.738281 123.925781 77.171875 123.726562 C 77.59375 123.535156 77.59375 123.535156 78.019531 123.339844 C 78.957031 122.730469 79.152344 122.316406 79.558594 121.28125 C 79.683594 120.238281 79.683594 120.238281 79.679688 119.09375 C 79.6875 118.660156 79.699219 118.230469 79.707031 117.785156 C 79.714844 117.324219 79.722656 116.863281 79.730469 116.390625 C 79.820312 113 79.992188 109.671875 80.511719 106.316406 C 80.558594 106.007812 80.605469 105.699219 80.65625 105.382812 C 80.882812 104.023438 81.164062 102.746094 81.546875 101.417969 C 81.851562 100.332031 81.988281 99.53125 81.949219 98.417969 C 81.933594 97.960938 81.917969 97.5 81.898438 97.023438 Z M 81.898438 97.023438 "/>
<path style=" stroke:none;fill-rule:nonzero;fill:rgb(21.568628%,60.392159%,81.960785%);fill-opacity:1;" d="M 45.230469 159.054688 C 48.921875 158.6875 51.8125 161.007812 54.796875 162.898438 C 55.367188 163.25 55.9375 163.601562 56.511719 163.953125 C 58.359375 165.089844 60.203125 166.238281 62.011719 167.445312 C 61.882812 168.480469 61.753906 169.511719 61.621094 170.578125 C 54.570312 169.191406 47.550781 167.699219 40.535156 166.152344 C 39.546875 165.933594 38.558594 165.714844 37.570312 165.5 C 35.1875 164.976562 32.800781 164.449219 30.421875 163.925781 C 30.546875 162.894531 30.675781 161.859375 30.808594 160.796875 C 32.621094 160.570312 34.429688 160.347656 36.238281 160.128906 C 36.855469 160.050781 37.46875 159.976562 38.082031 159.898438 C 39.824219 159.679688 41.570312 159.484375 43.320312 159.3125 C 43.960938 159.242188 44.597656 159.152344 45.230469 159.054688 Z M 45.230469 159.054688 "/>
<path style=" stroke:none;fill-rule:nonzero;fill:rgb(80.784315%,8.627451%,0.392157%);fill-opacity:1;" d="M 234.390625 65.1875 C 236.246094 65.230469 238.898438 65.945312 240.238281 67.292969 C 240.363281 69.328125 240.050781 71.054688 239.441406 72.980469 C 239.359375 73.25 239.277344 73.523438 239.191406 73.800781 C 239.015625 74.367188 238.839844 74.933594 238.660156 75.5 C 238.386719 76.363281 238.125 77.230469 237.863281 78.09375 C 237.691406 78.648438 237.519531 79.203125 237.34375 79.753906 C 237.269531 80.011719 237.191406 80.269531 237.113281 80.535156 C 236.609375 82.085938 236.0625 83.097656 234.78125 84.113281 C 233.957031 84.136719 233.957031 84.136719 233.097656 83.894531 C 232.792969 83.808594 232.488281 83.726562 232.175781 83.636719 C 228.921875 82.539062 228.921875 82.539062 228.148438 81.765625 C 228.328125 79.628906 228.757812 77.664062 229.402344 75.621094 C 229.488281 75.347656 229.570312 75.078125 229.660156 74.796875 C 229.835938 74.230469 230.011719 73.664062 230.191406 73.09375 C 230.46875 72.226562 230.734375 71.355469 231.003906 70.484375 C 231.175781 69.929688 231.351562 69.375 231.523438 68.824219 C 231.605469 68.5625 231.683594 68.304688 231.765625 68.035156 C 232.605469 65.414062 232.605469 65.414062 234.390625 65.1875 Z M 234.390625 65.1875 "/>
<path style=" stroke:none;fill-rule:nonzero;fill:rgb(80.784315%,8.627451%,0.392157%);fill-opacity:1;" d="M 227.90625 62.886719 C 228.644531 63.164062 229.371094 63.464844 230.101562 63.769531 C 230.535156 65.886719 230.375 67.441406 229.703125 69.460938 C 229.617188 69.730469 229.53125 70 229.445312 70.28125 C 229.171875 71.136719 228.894531 71.988281 228.613281 72.84375 C 228.429688 73.417969 228.246094 73.996094 228.0625 74.574219 C 227.886719 75.128906 227.710938 75.679688 227.53125 76.234375 C 227.449219 76.492188 227.367188 76.746094 227.28125 77.011719 C 226.453125 79.546875 226.453125 79.546875 225.808594 80.59375 C 224.191406 81.21875 223.042969 80.839844 221.445312 80.277344 C 221.039062 80.136719 220.632812 79.996094 220.210938 79.851562 C 219.179688 79.417969 219.179688 79.417969 218.398438 78.636719 C 218.140625 75.464844 219.464844 72.238281 220.441406 69.269531 C 220.71875 68.433594 220.988281 67.59375 221.253906 66.75 C 221.425781 66.21875 221.601562 65.683594 221.773438 65.152344 C 221.929688 64.667969 222.089844 64.1875 222.25 63.691406 C 223.191406 61.34375 225.886719 62.253906 227.90625 62.886719 Z M 227.90625 62.886719 "/>
<path style=" stroke:none;fill-rule:nonzero;fill:rgb(42.745098%,39.607844%,36.470589%);fill-opacity:1;" d="M 84.238281 137.714844 C 86.496094 137.867188 87.65625 137.996094 89.308594 139.667969 C 90.058594 140.914062 90.671875 142.214844 91.285156 143.53125 C 91.613281 144.226562 91.941406 144.917969 92.273438 145.609375 C 92.429688 145.9375 92.585938 146.265625 92.75 146.605469 C 93.230469 147.582031 93.230469 147.582031 94.085938 148.71875 C 96.0625 151.957031 94.761719 155.566406 94.015625 159.035156 C 93.898438 159.585938 93.785156 160.136719 93.671875 160.6875 C 93.390625 162.03125 93.109375 163.371094 92.820312 164.707031 C 92.269531 164.90625 91.714844 165.097656 91.164062 165.289062 C 90.855469 165.398438 90.550781 165.507812 90.234375 165.617188 C 88.960938 165.980469 87.894531 165.964844 86.578125 165.882812 C 86.835938 162.402344 87.519531 159.042969 88.246094 155.636719 C 89.117188 151.335938 89.71875 147.632812 87.238281 143.828125 C 86.921875 143.308594 86.605469 142.792969 86.292969 142.277344 C 86.066406 141.914062 86.066406 141.914062 85.835938 141.546875 C 84.238281 138.914062 84.238281 138.914062 84.238281 137.714844 Z M 84.238281 137.714844 "/>
<path style=" stroke:none;fill-rule:nonzero;fill:rgb(35.294119%,30.980393%,27.058825%);fill-opacity:1;" d="M 157.949219 173.316406 C 160.171875 173.136719 161.304688 173.441406 163.019531 174.878906 C 164.03125 176.527344 164.011719 178.085938 163.800781 179.964844 C 163.074219 181.785156 161.949219 182.511719 160.289062 183.488281 C 159.21875 183.859375 158.136719 184.097656 157.023438 184.320312 C 156.714844 184.382812 156.402344 184.449219 156.082031 184.515625 C 151.289062 185.480469 146.625 185.914062 141.742188 185.980469 C 141.085938 185.996094 141.085938 185.996094 140.417969 186.011719 C 137.863281 186.019531 136.199219 185.871094 134.160156 184.269531 C 133.699219 183.433594 133.699219 183.433594 133.378906 182.703125 C 133.714844 182.699219 133.714844 182.699219 134.054688 182.695312 C 146.515625 182.828125 146.515625 182.828125 157.460938 178.132812 C 158.085938 176.476562 158.089844 175.0625 157.949219 173.316406 Z M 157.949219 173.316406 "/>
<path style=" stroke:none;fill-rule:nonzero;fill:rgb(35.294119%,30.980393%,26.666668%);fill-opacity:1;" d="M 153.269531 53.207031 C 155.675781 53.351562 156.703125 53.875 158.339844 55.554688 C 159.21875 56.972656 159.230469 58.214844 158.964844 59.859375 C 158.542969 61.257812 157.835938 61.976562 156.78125 62.988281 C 155.34375 63.71875 154.347656 63.839844 152.757812 63.648438 C 152.414062 63.609375 152.070312 63.570312 151.714844 63.53125 C 150.871094 63.421875 150.027344 63.300781 149.1875 63.171875 C 146.765625 62.867188 144.324219 62.917969 141.886719 62.914062 C 141.164062 62.90625 141.164062 62.90625 140.421875 62.898438 C 137.597656 62.894531 134.917969 63.097656 132.136719 63.605469 C 129.972656 63.929688 128.242188 63.808594 126.359375 62.671875 C 125.558594 61.789062 125.417969 61.378906 125.191406 60.25 C 128.734375 59.488281 132.152344 59.355469 135.761719 59.386719 C 136.652344 59.394531 137.546875 59.394531 138.4375 59.394531 C 140.824219 59.402344 143.117188 59.421875 145.46875 59.859375 C 146.320312 59.921875 147.175781 59.960938 148.03125 59.980469 C 148.667969 60.003906 148.667969 60.003906 149.324219 60.023438 C 150.808594 59.820312 151.425781 59.332031 152.488281 58.292969 C 153.457031 56.628906 153.332031 55.078125 153.269531 53.207031 Z M 153.269531 53.207031 "/>
<path style=" stroke:none;fill-rule:nonzero;fill:rgb(69.803923%,34.901962%,2.352941%);fill-opacity:1;" d="M 145.859375 104.851562 C 146.117188 104.851562 146.375 104.851562 146.640625 104.851562 C 147.449219 107.65625 146.363281 109.34375 145.078125 111.890625 C 146.625 111.890625 148.167969 111.890625 149.761719 111.890625 C 150.28125 112.910156 150.800781 113.929688 151.320312 114.949219 C 151.46875 115.238281 151.617188 115.527344 151.769531 115.824219 C 151.980469 116.242188 151.980469 116.242188 152.199219 116.667969 C 152.328125 116.925781 152.457031 117.179688 152.59375 117.445312 C 152.878906 118.152344 152.878906 118.152344 152.878906 119.324219 C 149.019531 119.324219 145.15625 119.324219 141.179688 119.324219 C 140.792969 120.488281 140.40625 121.648438 140.011719 122.847656 C 139.550781 124.007812 139.027344 125.136719 138.5 126.269531 C 138.371094 126.554688 138.246094 126.839844 138.113281 127.132812 C 137.199219 129.101562 136.171875 130.835938 134.160156 131.84375 C 133.429688 131.910156 133.429688 131.910156 132.601562 131.917969 C 132.191406 131.925781 132.191406 131.925781 131.769531 131.933594 C 131.039062 131.84375 131.039062 131.84375 130.261719 131.0625 C 130.585938 131.039062 130.585938 131.039062 130.917969 131.011719 C 132.054688 130.796875 132.78125 130.503906 133.769531 129.890625 C 134.355469 129.011719 134.820312 128.210938 135.28125 127.273438 C 135.480469 126.882812 135.480469 126.882812 135.683594 126.484375 C 136.964844 123.945312 138.136719 121.355469 139.28125 118.75 C 139.863281 117.429688 140.449219 116.113281 141.039062 114.796875 C 141.152344 114.542969 141.265625 114.289062 141.382812 114.027344 C 142.660156 111.183594 144.035156 108.398438 145.46875 105.632812 C 145.597656 105.375 145.726562 105.117188 145.859375 104.851562 Z M 145.859375 104.851562 "/>
<path style=" stroke:none;fill-rule:nonzero;fill:rgb(34.901962%,30.980393%,27.058825%);fill-opacity:1;" d="M 171.210938 138.886719 C 172.867188 139.480469 173.535156 140.476562 174.328125 142.015625 C 174.648438 144.515625 174.242188 145.851562 172.769531 147.886719 C 171.308594 148.96875 170.273438 149.207031 168.46875 149.210938 C 167.761719 149.214844 167.761719 149.214844 167.039062 149.222656 C 166.523438 149.21875 166.011719 149.21875 165.480469 149.21875 C 164.929688 149.21875 164.382812 149.222656 163.832031 149.226562 C 162.339844 149.230469 160.851562 149.230469 159.359375 149.230469 C 158.113281 149.226562 156.867188 149.230469 155.621094 149.234375 C 152.683594 149.238281 149.746094 149.238281 146.808594 149.234375 C 143.777344 149.230469 140.75 149.234375 137.71875 149.246094 C 135.117188 149.253906 132.511719 149.257812 129.910156 149.253906 C 128.355469 149.253906 126.800781 149.253906 125.25 149.261719 C 123.785156 149.265625 122.324219 149.265625 120.863281 149.257812 C 120.074219 149.253906 119.285156 149.261719 118.492188 149.265625 C 114.199219 149.230469 114.199219 149.230469 112.320312 147.492188 C 113.347656 146.980469 114.097656 147.058594 115.246094 147.066406 C 115.703125 147.066406 116.15625 147.070312 116.628906 147.070312 C 117.128906 147.074219 117.632812 147.078125 118.152344 147.082031 C 118.683594 147.085938 119.21875 147.089844 119.75 147.089844 C 120.898438 147.097656 122.050781 147.101562 123.199219 147.109375 C 125.019531 147.121094 126.835938 147.125 128.65625 147.132812 C 129.28125 147.132812 129.902344 147.136719 130.527344 147.136719 C 130.835938 147.140625 131.148438 147.140625 131.472656 147.140625 C 135.707031 147.15625 139.945312 147.171875 144.179688 147.199219 C 147.035156 147.21875 149.890625 147.230469 152.75 147.234375 C 154.261719 147.238281 155.769531 147.242188 157.28125 147.257812 C 158.707031 147.269531 160.128906 147.273438 161.550781 147.273438 C 162.320312 147.273438 163.085938 147.285156 163.855469 147.292969 C 166.609375 147.285156 168.515625 147.109375 170.820312 145.539062 C 171.554688 144.304688 171.695312 143.425781 171.671875 141.992188 C 171.671875 141.65625 171.667969 141.320312 171.664062 140.976562 C 171.632812 140 171.632812 140 171.210938 138.886719 Z M 171.210938 138.886719 "/>
<path style=" stroke:none;fill-rule:nonzero;fill:rgb(81.960785%,40.392157%,1.960784%);fill-opacity:1;" d="M 79.511719 134.804688 C 79.832031 134.796875 80.152344 134.789062 80.484375 134.78125 C 81.929688 135.054688 82.722656 135.59375 83.851562 136.539062 C 84.40625 137.507812 84.847656 138.375 85.265625 139.402344 C 85.480469 139.90625 85.695312 140.410156 85.914062 140.910156 C 86.019531 141.160156 86.125 141.40625 86.234375 141.660156 C 86.59375 142.441406 87.007812 143.175781 87.441406 143.917969 C 88.140625 145.148438 88.140625 145.148438 88.140625 145.929688 C 84.277344 145.929688 80.417969 145.929688 76.441406 145.929688 C 74.148438 140.410156 74.148438 140.410156 74.488281 138.496094 C 75.683594 136.269531 76.898438 134.808594 79.511719 134.804688 Z M 79.511719 134.804688 "/>
<path style=" stroke:none;fill-rule:nonzero;fill:rgb(43.137255%,39.607844%,36.470589%);fill-opacity:1;" d="M 119.339844 89.59375 C 120.914062 90.316406 121.585938 91.046875 122.226562 92.65625 C 122.691406 94.347656 122.609375 96.0625 122.59375 97.800781 C 122.59375 98.226562 122.59375 98.648438 122.59375 99.085938 C 122.59375 100.480469 122.582031 101.875 122.574219 103.269531 C 122.570312 104.242188 122.570312 105.210938 122.570312 106.179688 C 122.566406 108.726562 122.554688 111.277344 122.539062 113.824219 C 122.527344 116.425781 122.523438 119.027344 122.515625 121.628906 C 122.503906 126.730469 122.484375 131.828125 122.460938 136.929688 C 121.6875 136.929688 120.914062 136.929688 120.121094 136.929688 C 120.117188 136.695312 120.117188 136.460938 120.113281 136.21875 C 120.074219 130.515625 120.03125 124.8125 119.988281 119.105469 C 119.964844 116.347656 119.945312 113.589844 119.925781 110.832031 C 119.90625 108.171875 119.886719 105.507812 119.867188 102.847656 C 119.855469 101.832031 119.851562 100.816406 119.84375 99.800781 C 119.835938 98.378906 119.824219 96.957031 119.808594 95.535156 C 119.808594 95.113281 119.804688 94.691406 119.804688 94.257812 C 119.800781 93.867188 119.796875 93.480469 119.792969 93.082031 C 119.789062 92.746094 119.785156 92.410156 119.785156 92.0625 C 119.730469 91.191406 119.582031 90.429688 119.339844 89.59375 Z M 119.339844 89.59375 "/>
<path style=" stroke:none;fill-rule:nonzero;fill:rgb(35.294119%,30.980393%,27.058825%);fill-opacity:1;" d="M 176.671875 62.597656 C 183.367188 63.484375 191.167969 73.175781 195.023438 78.222656 C 198.335938 82.570312 198.335938 82.570312 198.269531 85.882812 C 197.984375 87.730469 196.917969 88.652344 195.4375 89.738281 C 193.710938 90.25 192.292969 90.132812 190.613281 89.519531 C 189.445312 88.746094 188.976562 88.101562 188.371094 86.851562 C 188.585938 86.730469 188.800781 86.605469 189.023438 86.480469 C 189.449219 86.230469 189.449219 86.230469 189.882812 85.972656 C 190.160156 85.808594 190.441406 85.644531 190.730469 85.476562 C 192.0625 84.457031 192.25 83.441406 192.5625 81.816406 C 192.453125 77.292969 187.054688 72.714844 184.078125 69.640625 C 183.804688 69.351562 183.804688 69.351562 183.523438 69.054688 C 181.542969 66.988281 179.558594 65.027344 177.203125 63.386719 C 177.027344 63.257812 176.851562 63.125 176.671875 62.988281 C 176.671875 62.859375 176.671875 62.730469 176.671875 62.597656 Z M 176.671875 62.597656 "/>
<path style=" stroke:none;fill-rule:nonzero;fill:rgb(43.137255%,39.607844%,36.470589%);fill-opacity:1;" d="M 105.8125 174.90625 C 106.4375 175.226562 106.4375 175.226562 107.074219 175.554688 C 107.390625 175.71875 107.707031 175.882812 108.03125 176.054688 C 106.964844 176.765625 106.5 176.976562 105.300781 177.210938 C 104.992188 177.273438 104.679688 177.335938 104.359375 177.402344 C 104.023438 177.464844 103.6875 177.53125 103.34375 177.597656 C 102.996094 177.664062 102.648438 177.734375 102.292969 177.804688 C 101.558594 177.949219 100.824219 178.089844 100.089844 178.234375 C 98.972656 178.449219 97.855469 178.667969 96.738281 178.890625 C 96.023438 179.03125 95.308594 179.171875 94.59375 179.308594 C 94.09375 179.40625 94.09375 179.40625 93.585938 179.507812 C 90.980469 180.003906 88.613281 180.316406 86.09375 179.28125 C 85.769531 179.15625 85.445312 179.027344 85.113281 178.898438 C 84.128906 178.339844 83.714844 177.75 83.070312 176.835938 C 86.316406 176.175781 89.566406 175.523438 92.820312 174.878906 C 93.238281 174.796875 93.660156 174.714844 94.09375 174.628906 C 95.261719 174.398438 96.429688 174.171875 97.597656 173.949219 C 97.953125 173.882812 98.304688 173.8125 98.671875 173.738281 C 101.574219 173.195312 103.160156 173.53125 105.8125 174.90625 Z M 105.8125 174.90625 "/>
<path style=" stroke:none;fill-rule:nonzero;fill:rgb(35.686275%,31.37255%,27.058825%);fill-opacity:1;" d="M 116.609375 169.792969 C 118.972656 170.441406 120.804688 171.0625 122.460938 172.925781 C 123.25 174.726562 123.351562 176.039062 122.824219 177.9375 C 121.699219 179.796875 120.820312 180.539062 118.730469 181.164062 C 115.023438 181.457031 111.121094 178.613281 108.03125 176.835938 C 108.289062 176.707031 108.542969 176.578125 108.808594 176.445312 C 109.039062 176.5625 109.269531 176.679688 109.507812 176.804688 C 111.117188 177.59375 112.910156 177.445312 114.660156 177.226562 C 115.832031 176.523438 116.394531 176.089844 117 174.878906 C 117.039062 174.238281 117.050781 173.59375 117.046875 172.949219 C 117.050781 172.605469 117.050781 172.265625 117.050781 171.910156 C 117.039062 170.910156 117.039062 170.910156 116.609375 169.792969 Z M 116.609375 169.792969 "/>
<path style=" stroke:none;fill-rule:nonzero;fill:rgb(27.058825%,24.705882%,22.745098%);fill-opacity:1;" d="M 163.800781 93.503906 C 165.300781 93.71875 166.003906 94.257812 166.921875 95.460938 C 167.074219 96.601562 167.132812 97.59375 167.121094 98.730469 C 167.125 99.0625 167.128906 99.390625 167.128906 99.730469 C 167.136719 100.816406 167.132812 101.902344 167.128906 102.988281 C 167.128906 103.746094 167.128906 104.503906 167.132812 105.257812 C 167.132812 106.84375 167.128906 108.429688 167.125 110.011719 C 167.113281 112.042969 167.121094 114.074219 167.128906 116.105469 C 167.132812 117.664062 167.132812 119.226562 167.128906 120.789062 C 167.128906 121.539062 167.128906 122.285156 167.132812 123.035156 C 167.136719 124.082031 167.128906 125.128906 167.121094 126.175781 C 167.125 126.484375 167.128906 126.792969 167.132812 127.113281 C 167.101562 129.0625 166.761719 130.089844 165.359375 131.453125 C 164.183594 132.042969 163.148438 131.914062 161.851562 131.84375 C 161.464844 131.585938 161.078125 131.328125 160.679688 131.0625 C 161.453125 130.820312 162.230469 130.578125 163.003906 130.335938 C 164.121094 129.707031 164.417969 129.097656 164.96875 127.933594 C 165.082031 126.84375 165.128906 125.847656 165.121094 124.761719 C 165.125 124.445312 165.125 124.132812 165.128906 123.808594 C 165.132812 122.773438 165.128906 121.742188 165.125 120.707031 C 165.125 119.988281 165.128906 119.265625 165.128906 118.546875 C 165.128906 117.035156 165.128906 115.527344 165.121094 114.019531 C 165.117188 112.085938 165.121094 110.152344 165.125 108.222656 C 165.132812 106.734375 165.128906 105.246094 165.125 103.757812 C 165.125 103.046875 165.125 102.332031 165.128906 101.621094 C 165.132812 100.625 165.128906 99.628906 165.121094 98.632812 C 165.125 98.339844 165.125 98.046875 165.128906 97.742188 C 165.109375 96 164.835938 94.910156 163.800781 93.503906 Z M 163.800781 93.503906 "/>
<path style=" stroke:none;fill-rule:nonzero;fill:rgb(35.294119%,29.803923%,24.313726%);fill-opacity:1;" d="M 139.621094 118.152344 C 143.996094 118.152344 148.371094 118.152344 152.878906 118.152344 C 152.878906 118.539062 152.878906 118.925781 152.878906 119.324219 C 149.019531 119.324219 145.15625 119.324219 141.179688 119.324219 C 140.792969 120.488281 140.40625 121.648438 140.011719 122.847656 C 139.550781 124.007812 139.027344 125.136719 138.5 126.269531 C 138.371094 126.554688 138.246094 126.839844 138.113281 127.132812 C 137.199219 129.101562 136.171875 130.835938 134.160156 131.84375 C 133.429688 131.910156 133.429688 131.910156 132.601562 131.917969 C 132.328125 131.921875 132.054688 131.929688 131.769531 131.933594 C 131.039062 131.84375 131.039062 131.84375 130.261719 131.0625 C 130.476562 131.046875 130.695312 131.027344 130.917969 131.011719 C 132.6875 130.679688 133.546875 130.207031 134.601562 128.710938 C 135.449219 127.183594 136.167969 125.609375 136.890625 124.019531 C 138.242188 121.117188 138.242188 121.117188 139.621094 118.152344 Z M 139.621094 118.152344 "/>
<path style=" stroke:none;fill-rule:nonzero;fill:rgb(35.294119%,30.980393%,27.058825%);fill-opacity:1;" d="M 84.238281 137.714844 C 86.496094 137.867188 87.65625 137.996094 89.308594 139.667969 C 90.074219 140.929688 90.703125 142.246094 91.332031 143.582031 C 91.589844 144.109375 91.589844 144.109375 91.851562 144.652344 C 92.167969 145.308594 92.480469 145.964844 92.792969 146.621094 C 93.183594 147.4375 93.585938 148.25 93.988281 149.058594 C 92.574219 149.058594 91.160156 149.058594 89.699219 149.058594 C 89.5 148.652344 89.5 148.652344 89.296875 148.238281 C 87.996094 145.597656 86.644531 142.996094 85.230469 140.414062 C 84.238281 138.582031 84.238281 138.582031 84.238281 137.714844 Z M 84.238281 137.714844 "/>
<path style=" stroke:none;fill-rule:nonzero;fill:rgb(43.921569%,39.607844%,36.078432%);fill-opacity:1;" d="M 148.589844 93.503906 C 149.730469 93.71875 150.632812 93.925781 151.394531 94.851562 C 152.886719 97.316406 154.125 99.890625 155.34375 102.503906 C 155.554688 102.949219 155.769531 103.390625 155.992188 103.851562 C 157.109375 106.253906 157.855469 108.054688 157.558594 110.71875 C 156.351562 109.28125 155.644531 107.667969 154.867188 105.976562 C 154.722656 105.667969 154.582031 105.359375 154.433594 105.046875 C 153.824219 103.738281 153.222656 102.429688 152.617188 101.117188 C 152.171875 100.160156 151.730469 99.203125 151.285156 98.246094 C 151.148438 97.953125 151.011719 97.65625 150.875 97.355469 C 150.222656 95.957031 149.589844 94.695312 148.589844 93.503906 Z M 148.589844 93.503906 "/>
<path style=" stroke:none;fill-rule:nonzero;fill:rgb(36.862746%,31.37255%,26.274511%);fill-opacity:1;" d="M 145.859375 104.851562 C 146.117188 104.851562 146.375 104.851562 146.640625 104.851562 C 147.433594 107.605469 146.363281 109.429688 145.078125 111.890625 C 144.308594 111.890625 143.535156 111.890625 142.738281 111.890625 C 143.667969 109.476562 144.671875 107.148438 145.859375 104.851562 Z M 145.859375 104.851562 "/>
<path style=" stroke:none;fill-rule:nonzero;fill:rgb(43.137255%,39.607844%,36.078432%);fill-opacity:1;" d="M 165.359375 125.585938 C 166.296875 126.5625 166.527344 127.132812 166.726562 128.496094 C 166.53125 129.890625 166.53125 129.890625 165.726562 131.039062 C 164.304688 132.039062 163.550781 132.066406 161.851562 131.84375 C 161.464844 131.585938 161.078125 131.328125 160.679688 131.0625 C 161.171875 130.910156 161.660156 130.753906 162.167969 130.597656 C 163.3125 130.164062 163.75 129.949219 164.554688 128.984375 C 165.003906 127.847656 165.21875 126.796875 165.359375 125.585938 Z M 165.359375 125.585938 "/>
<path style=" stroke:none;fill-rule:nonzero;fill:rgb(80.784315%,8.627451%,0.392157%);fill-opacity:1;" d="M 235.558594 54.382812 C 236.074219 54.640625 236.589844 54.898438 237.121094 55.164062 C 237.167969 56.09375 237.167969 56.09375 237.121094 57.121094 C 236.339844 57.902344 236.339844 57.902344 235.316406 57.949219 C 235.011719 57.933594 234.703125 57.917969 234.390625 57.902344 C 234.777344 56.742188 235.164062 55.578125 235.558594 54.382812 Z M 235.558594 54.382812 "/>
<path style=" stroke:none;fill-rule:nonzero;fill:rgb(80.784315%,8.627451%,0.392157%);fill-opacity:1;" d="M 236.339844 48.902344 C 236 51.152344 236 51.152344 235.558594 52.035156 C 235.046875 51.777344 234.53125 51.515625 234 51.25 C 234 50.605469 234 49.960938 234 49.296875 C 234.78125 48.902344 234.78125 48.902344 236.339844 48.902344 Z M 236.339844 48.902344 "/>
</g>
</svg>
