<?xml version="1.0" encoding="UTF-8"?>
<svg xmlns="http://www.w3.org/2000/svg" xmlns:xlink="http://www.w3.org/1999/xlink" width="40px" height="40px" viewBox="0 0 40 40" version="1.1">
<g id="surface1">
<path style=" stroke:none;fill-rule:nonzero;fill:rgb(0%,0%,0%);fill-opacity:1;" d="M 33.339844 0 L 6.660156 0 C 2.988281 0 0 2.988281 0 6.660156 L 0 33.339844 C 0 37.011719 2.988281 40 6.660156 40 L 33.339844 40 C 37.011719 40 40 37.011719 40 33.339844 L 40 6.660156 C 40 2.988281 37.011719 0 33.339844 0 Z M 14.546875 23.855469 C 15.175781 24.527344 15.148438 25.582031 14.476562 26.214844 C 14.152344 26.515625 13.742188 26.667969 13.332031 26.667969 C 12.890625 26.667969 12.449219 26.492188 12.121094 26.144531 L 7.476562 21.214844 C 7.316406 21.058594 7.183594 20.875 7.089844 20.660156 C 6.824219 20.046875 6.945312 19.339844 7.398438 18.855469 L 12.121094 13.855469 C 12.753906 13.1875 13.804688 13.15625 14.476562 13.789062 C 15.148438 14.421875 15.175781 15.476562 14.546875 16.144531 L 10.910156 19.996094 Z M 23.246094 15.527344 L 19.914062 25.527344 C 19.679688 26.226562 19.03125 26.667969 18.332031 26.667969 C 18.160156 26.667969 17.980469 26.640625 17.804688 26.582031 C 16.933594 26.289062 16.460938 25.34375 16.753906 24.472656 L 20.085938 14.472656 C 20.378906 13.601562 21.3125 13.125 22.191406 13.417969 C 23.066406 13.710938 23.539062 14.652344 23.246094 15.527344 Z M 32.84375 21.179688 L 27.84375 26.179688 C 27.519531 26.503906 27.09375 26.667969 26.667969 26.667969 C 26.238281 26.667969 25.8125 26.503906 25.488281 26.179688 C 24.835938 25.527344 24.835938 24.472656 25.488281 23.820312 L 29.308594 20 L 25.488281 16.179688 C 24.835938 15.527344 24.835938 14.472656 25.488281 13.820312 C 26.140625 13.171875 27.195312 13.171875 27.84375 13.820312 L 32.84375 18.820312 C 33.496094 19.472656 33.496094 20.527344 32.84375 21.179688 Z M 32.84375 21.179688 "/>
</g>
</svg>
