<?xml version="1.0" encoding="UTF-8"?>
<svg xmlns="http://www.w3.org/2000/svg" xmlns:xlink="http://www.w3.org/1999/xlink" width="40px" height="40px" viewBox="0 0 40 40" version="1.1">
<g id="surface1">
<path style=" stroke:none;fill-rule:nonzero;fill:rgb(0%,0%,0%);fill-opacity:1;" d="M 6.273438 16.363281 L 1.820312 16.363281 C 0.816406 16.363281 0 17.179688 0 18.183594 L 0 38.183594 C 0 39.183594 0.816406 40 1.820312 40 L 6.273438 40 C 7.277344 40 8.089844 39.183594 8.089844 38.183594 L 8.089844 18.183594 C 8.089844 17.179688 7.277344 16.363281 6.273438 16.363281 Z M 6.273438 16.363281 "/>
<path style=" stroke:none;fill-rule:nonzero;fill:rgb(0%,0%,0%);fill-opacity:1;" d="M 16.910156 21.816406 L 12.457031 21.816406 C 11.449219 21.816406 10.636719 22.632812 10.636719 23.636719 L 10.636719 38.179688 C 10.636719 39.183594 11.449219 40 12.457031 40 L 16.910156 40 C 17.914062 40 18.726562 39.183594 18.726562 38.179688 L 18.726562 23.636719 C 18.726562 22.632812 17.914062 21.816406 16.910156 21.816406 Z M 16.910156 21.816406 "/>
<path style=" stroke:none;fill-rule:nonzero;fill:rgb(0%,0%,0%);fill-opacity:1;" d="M 27.542969 21.816406 L 23.089844 21.816406 C 22.085938 21.816406 21.273438 22.632812 21.273438 23.636719 L 21.273438 38.179688 C 21.273438 39.183594 22.085938 40 23.089844 40 L 27.542969 40 C 28.550781 40 29.363281 39.183594 29.363281 38.179688 L 29.363281 23.636719 C 29.363281 22.632812 28.550781 21.816406 27.542969 21.816406 Z M 27.542969 21.816406 "/>
<path style=" stroke:none;fill-rule:nonzero;fill:rgb(0%,0%,0%);fill-opacity:1;" d="M 38.179688 16.363281 L 33.726562 16.363281 C 32.722656 16.363281 31.910156 17.179688 31.910156 18.183594 L 31.910156 38.183594 C 31.910156 39.1875 32.722656 40 33.726562 40 L 38.179688 40 C 39.183594 40 40 39.183594 40 38.183594 L 40 18.183594 C 40 17.179688 39.183594 16.363281 38.179688 16.363281 Z M 38.179688 16.363281 "/>
<path style=" stroke:none;fill-rule:nonzero;fill:rgb(0%,0%,0%);fill-opacity:1;" d="M 20.53125 10.953125 L 20.53125 14.226562 C 21.519531 14.160156 22.566406 13.695312 22.566406 12.605469 C 22.566406 11.480469 21.421875 11.152344 20.53125 10.953125 Z M 20.53125 10.953125 "/>
<path style=" stroke:none;fill-rule:nonzero;fill:rgb(0%,0%,0%);fill-opacity:1;" d="M 17.683594 7.035156 C 17.683594 7.863281 18.296875 8.339844 19.539062 8.589844 L 19.539062 5.628906 C 18.410156 5.664062 17.683594 6.324219 17.683594 7.035156 Z M 17.683594 7.035156 "/>
<path style=" stroke:none;fill-rule:nonzero;fill:rgb(0%,0%,0%);fill-opacity:1;" d="M 20 0 C 14.484375 0 10 4.488281 10 10 C 10 15.511719 14.484375 20 20 20 C 25.515625 20 30 15.511719 30 10 C 30 4.488281 25.515625 0 20 0 Z M 20.53125 15.914062 L 20.53125 16.9375 C 20.53125 17.21875 20.3125 17.5 20.03125 17.5 C 19.753906 17.5 19.539062 17.21875 19.539062 16.9375 L 19.539062 15.914062 C 16.746094 15.847656 15.355469 14.175781 15.355469 12.871094 C 15.355469 12.210938 15.753906 11.828125 16.378906 11.828125 C 18.230469 11.828125 16.789062 14.109375 19.539062 14.226562 L 19.539062 10.769531 C 17.085938 10.324219 15.601562 9.25 15.601562 7.414062 C 15.601562 5.167969 17.472656 4.007812 19.539062 3.945312 L 19.539062 3.0625 C 19.539062 2.78125 19.753906 2.5 20.03125 2.5 C 20.3125 2.5 20.53125 2.78125 20.53125 3.0625 L 20.53125 3.945312 C 21.820312 3.976562 24.464844 4.785156 24.464844 6.40625 C 24.464844 7.050781 23.984375 7.429688 23.421875 7.429688 C 22.34375 7.429688 22.359375 5.664062 20.53125 5.628906 L 20.53125 8.769531 C 22.710938 9.234375 24.644531 9.878906 24.644531 12.425781 C 24.644531 14.640625 22.992188 15.761719 20.53125 15.914062 Z M 20.53125 15.914062 "/>
</g>
</svg>
