<?xml version="1.0" encoding="UTF-8"?>
<svg xmlns="http://www.w3.org/2000/svg" xmlns:xlink="http://www.w3.org/1999/xlink" width="40px" height="40px" viewBox="0 0 40 40" version="1.1">
<g id="surface1">
<path style=" stroke:none;fill-rule:nonzero;fill:rgb(0%,0%,0%);fill-opacity:1;" d="M 20 5.304688 L 5.304688 10.203125 L 5.304688 12.652344 L 34.695312 12.652344 L 34.695312 10.203125 Z M 5.304688 15.101562 L 5.304688 17.550781 L 7.753906 17.550781 L 7.753906 29.796875 L 5.304688 29.796875 L 2.855469 34.695312 L 37.144531 34.695312 L 34.695312 29.796875 L 32.246094 29.796875 L 32.246094 17.550781 L 34.695312 17.550781 L 34.695312 15.101562 Z M 15.101562 17.550781 C 16.320312 17.550781 17.550781 18.855469 17.550781 20 L 17.550781 29.796875 L 12.652344 29.796875 L 12.652344 20 C 12.652344 18.707031 13.882812 17.550781 15.101562 17.550781 Z M 24.898438 17.550781 C 26.128906 17.550781 27.347656 18.707031 27.347656 20 L 27.347656 29.796875 L 22.449219 29.796875 L 22.449219 20 C 22.449219 18.707031 23.664062 17.550781 24.898438 17.550781 Z M 24.898438 17.550781 "/>
</g>
</svg>
