<?xml version="1.0" encoding="UTF-8"?>
<svg xmlns="http://www.w3.org/2000/svg" xmlns:xlink="http://www.w3.org/1999/xlink" width="40px" height="40px" viewBox="0 0 40 40" version="1.1">
<g id="surface1">
<path style=" stroke:none;fill-rule:nonzero;fill:rgb(8.627451%,9.019608%,9.411765%);fill-opacity:1;" d="M 26.984375 3.332031 L 13.015625 3.332031 C 6.949219 3.332031 3.332031 6.949219 3.332031 13.015625 L 3.332031 26.964844 C 3.332031 33.050781 6.949219 36.667969 13.015625 36.667969 L 26.964844 36.667969 C 33.035156 36.667969 36.648438 33.050781 36.648438 26.984375 L 36.648438 13.015625 C 36.667969 6.949219 33.050781 3.332031 26.984375 3.332031 Z M 18.382812 29.433594 C 18.867188 29.917969 18.867188 30.714844 18.382812 31.199219 C 18.132812 31.449219 17.816406 31.566406 17.5 31.566406 C 17.183594 31.566406 16.867188 31.449219 16.617188 31.199219 L 13.75 28.332031 L 10.882812 31.199219 C 10.632812 31.433594 10.316406 31.566406 10 31.566406 C 9.683594 31.566406 9.367188 31.449219 9.117188 31.199219 C 8.632812 30.714844 8.632812 29.917969 9.117188 29.433594 L 11.984375 26.566406 L 9.117188 23.699219 C 8.632812 23.214844 8.632812 22.417969 9.117188 21.933594 C 9.601562 21.449219 10.398438 21.449219 10.882812 21.933594 L 13.75 24.800781 L 16.617188 21.933594 C 17.101562 21.449219 17.898438 21.449219 18.382812 21.933594 C 18.867188 22.417969 18.867188 23.214844 18.382812 23.699219 L 15.515625 26.566406 Z M 17.5 14.683594 L 10 14.683594 C 9.316406 14.683594 8.75 14.117188 8.75 13.433594 C 8.75 12.75 9.316406 12.183594 10 12.183594 L 17.5 12.183594 C 18.183594 12.183594 18.75 12.75 18.75 13.433594 C 18.75 14.117188 18.183594 14.683594 17.5 14.683594 Z M 30 30.933594 L 22.5 30.933594 C 21.816406 30.933594 21.25 30.367188 21.25 29.683594 C 21.25 29 21.816406 28.433594 22.5 28.433594 L 30 28.433594 C 30.683594 28.433594 31.25 29 31.25 29.683594 C 31.25 30.367188 30.683594 30.933594 30 30.933594 Z M 30 24.683594 L 22.5 24.683594 C 21.816406 24.683594 21.25 24.117188 21.25 23.433594 C 21.25 22.75 21.816406 22.183594 22.5 22.183594 L 30 22.183594 C 30.683594 22.183594 31.25 22.75 31.25 23.433594 C 31.25 24.117188 30.683594 24.683594 30 24.683594 Z M 30 14.683594 L 27.535156 14.683594 L 27.535156 17.183594 C 27.535156 17.867188 26.964844 18.433594 26.285156 18.433594 C 25.601562 18.433594 25.035156 17.867188 25.035156 17.183594 L 25.035156 14.683594 L 22.5 14.683594 C 21.816406 14.683594 21.25 14.117188 21.25 13.433594 C 21.25 12.75 21.816406 12.183594 22.5 12.183594 L 25.035156 12.183594 L 25.035156 9.683594 C 25.035156 9 25.601562 8.433594 26.285156 8.433594 C 26.964844 8.433594 27.535156 9 27.535156 9.683594 L 27.535156 12.183594 L 30 12.183594 C 30.683594 12.183594 31.25 12.75 31.25 13.433594 C 31.25 14.117188 30.683594 14.683594 30 14.683594 Z M 30 14.683594 "/>
</g>
</svg>
