<?xml version="1.0" encoding="UTF-8"?>
<svg xmlns="http://www.w3.org/2000/svg" xmlns:xlink="http://www.w3.org/1999/xlink" width="40px" height="40px" viewBox="0 0 40 40" version="1.1">
<g id="surface1">
<path style=" stroke:none;fill-rule:nonzero;fill:rgb(0%,0%,0%);fill-opacity:1;" d="M 21.242188 21.078125 C 21.242188 19.914062 20.300781 18.96875 19.136719 18.96875 C 17.96875 18.96875 17.027344 19.914062 17.027344 21.078125 C 17.027344 22.242188 17.96875 23.1875 19.136719 23.1875 C 20.300781 23.1875 21.242188 22.242188 21.242188 21.078125 Z M 21.242188 21.078125 "/>
<path style=" stroke:none;fill-rule:nonzero;fill:rgb(0%,0%,0%);fill-opacity:1;" d="M 25.226562 23.933594 C 25.226562 23.242188 24.667969 22.679688 23.976562 22.679688 C 23.285156 22.679688 22.722656 23.242188 22.722656 23.933594 C 22.722656 24.625 23.285156 25.183594 23.976562 25.183594 C 24.667969 25.183594 25.226562 24.625 25.226562 23.933594 Z M 25.226562 23.933594 "/>
<path style=" stroke:none;fill-rule:nonzero;fill:rgb(0%,0%,0%);fill-opacity:1;" d="M 4.460938 40 L 7.429688 40 C 7.882812 40 8.277344 39.695312 8.390625 39.253906 L 10.21875 32.238281 L 10.515625 31.097656 L 10.824219 29.914062 C 12.964844 32.632812 16.285156 34.378906 20.015625 34.378906 C 23.730469 34.378906 27.042969 32.644531 29.183594 29.945312 L 29.492188 31.125 L 29.789062 32.265625 L 31.609375 39.253906 C 31.722656 39.695312 32.117188 40 32.570312 40 L 35.539062 40 C 36.089844 40 36.535156 39.554688 36.535156 39.003906 C 36.535156 38.453125 36.089844 38.007812 35.539062 38.007812 L 33.34375 38.007812 L 31.351562 30.359375 L 31.050781 29.203125 C 31.628906 29.167969 32.085938 28.6875 32.085938 28.101562 C 32.085938 27.824219 31.984375 27.570312 31.816406 27.375 C 31.613281 27.140625 31.3125 26.992188 30.980469 26.992188 L 30.894531 26.992188 C 31.421875 25.660156 31.714844 24.203125 31.714844 22.679688 C 31.714844 20.332031 31.019531 18.144531 29.828125 16.3125 L 33.164062 12.976562 C 33.683594 12.457031 33.683594 11.617188 33.164062 11.097656 L 31.496094 9.425781 C 30.976562 8.910156 30.136719 8.910156 29.617188 9.425781 L 27.699219 11.347656 L 26.257812 12.789062 C 25.511719 12.316406 24.707031 11.925781 23.859375 11.628906 L 23.859375 3.582031 L 24.234375 3.582031 C 24.96875 3.582031 25.5625 2.984375 25.5625 2.253906 L 25.5625 1.328125 C 25.5625 0.59375 24.96875 0 24.234375 0 L 20.542969 0 C 20.628906 0.195312 20.679688 0.410156 20.679688 0.636719 C 20.679688 1.09375 20.484375 1.503906 20.171875 1.789062 C 19.894531 2.042969 19.523438 2.199219 19.117188 2.199219 C 18.710938 2.199219 18.339844 2.042969 18.0625 1.789062 C 17.753906 1.503906 17.554688 1.09375 17.554688 0.636719 C 17.554688 0.410156 17.605469 0.195312 17.691406 0 L 15.796875 0 C 15.0625 0 14.46875 0.59375 14.46875 1.328125 L 14.46875 2.253906 C 14.46875 2.984375 15.0625 3.582031 15.796875 3.582031 L 16.171875 3.582031 L 16.171875 11.628906 C 11.601562 13.21875 8.316406 17.566406 8.316406 22.679688 C 8.316406 24.203125 8.609375 25.660156 9.140625 26.992188 L 9.054688 26.992188 C 8.71875 26.992188 8.417969 27.140625 8.214844 27.375 C 8.046875 27.570312 7.945312 27.824219 7.945312 28.101562 C 7.945312 28.675781 8.386719 29.148438 8.949219 29.203125 L 8.65625 30.328125 L 6.65625 38.007812 L 4.460938 38.007812 C 3.910156 38.007812 3.464844 38.453125 3.464844 39.003906 C 3.464844 39.554688 3.910156 40 4.460938 40 Z M 20.015625 32.503906 C 17.105469 32.503906 14.492188 31.230469 12.707031 29.207031 L 27.324219 29.207031 C 25.539062 31.230469 22.925781 32.503906 20.015625 32.503906 Z M 21.265625 7.023438 C 21.957031 7.023438 22.519531 7.585938 22.519531 8.277344 C 22.519531 8.621094 22.378906 8.929688 22.15625 9.15625 C 21.929688 9.386719 21.613281 9.527344 21.265625 9.527344 C 20.84375 9.527344 20.46875 9.316406 20.242188 8.992188 C 20.097656 8.789062 20.015625 8.542969 20.015625 8.277344 C 20.015625 7.585938 20.574219 7.023438 21.265625 7.023438 Z M 16.171875 13.722656 C 16.347656 13.558594 16.574219 13.445312 16.820312 13.402344 C 16.886719 13.390625 16.957031 13.386719 17.027344 13.386719 C 17.71875 13.386719 18.277344 13.945312 18.277344 14.636719 C 18.277344 15.039062 18.089844 15.394531 17.792969 15.625 C 17.582031 15.789062 17.316406 15.890625 17.027344 15.890625 C 16.695312 15.890625 16.398438 15.761719 16.171875 15.550781 C 15.929688 15.324219 15.777344 15 15.777344 14.636719 C 15.773438 14.277344 15.929688 13.949219 16.171875 13.722656 Z M 11.773438 17.542969 L 28.257812 17.542969 C 29.210938 19.050781 29.765625 20.839844 29.765625 22.753906 C 29.765625 24.273438 29.417969 25.710938 28.796875 26.992188 L 21.914062 26.992188 C 21.941406 26.886719 21.960938 26.773438 21.960938 26.65625 C 21.960938 25.964844 21.398438 25.402344 20.707031 25.402344 C 20.015625 25.402344 19.457031 25.964844 19.457031 26.65625 C 19.457031 26.773438 19.472656 26.886719 19.503906 26.992188 L 11.234375 26.992188 C 10.613281 25.710938 10.265625 24.273438 10.265625 22.753906 C 10.265625 20.839844 10.820312 19.050781 11.773438 17.542969 Z M 11.773438 17.542969 "/>
</g>
</svg>
