<?xml version="1.0" encoding="UTF-8"?>
<svg xmlns="http://www.w3.org/2000/svg" xmlns:xlink="http://www.w3.org/1999/xlink" width="40px" height="40px" viewBox="0 0 40 40" version="1.1">
<g id="surface1">
<path style=" stroke:none;fill-rule:nonzero;fill:rgb(0%,0%,0%);fill-opacity:1;" d="M 32.59375 28.609375 C 31.148438 26.207031 26.9375 19.574219 25.832031 17.835938 L 25.832031 8.332031 L 26.667969 8.332031 C 27.585938 8.332031 28.332031 7.585938 28.332031 6.667969 C 28.332031 5.746094 27.585938 5 26.667969 5 L 13.332031 5 C 12.414062 5 11.667969 5.746094 11.667969 6.667969 C 11.667969 7.585938 12.414062 8.332031 13.332031 8.332031 L 14.167969 8.332031 L 14.167969 17.835938 C 13.0625 19.574219 8.851562 26.207031 7.40625 28.609375 C 6.976562 29.320312 6.761719 30.066406 6.761719 30.832031 C 6.761719 33.128906 8.628906 35 10.925781 35 L 29.070312 35 C 31.371094 35 33.238281 33.128906 33.238281 30.832031 C 33.238281 30.066406 33.023438 29.320312 32.59375 28.609375 Z M 17.238281 19.214844 C 17.410156 18.949219 17.5 18.636719 17.5 18.320312 L 17.5 8.335938 L 22.5 8.335938 L 22.5 18.320312 C 22.5 18.636719 22.589844 18.949219 22.761719 19.214844 C 22.785156 19.253906 24.050781 21.246094 25.53125 23.585938 L 12.667969 26.441406 C 14.75 23.128906 17.203125 19.273438 17.238281 19.214844 Z M 17.238281 19.214844 "/>
</g>
</svg>
